<?xml version="1.0" encoding="UTF-8" standalone="no"?>
<svg
   height="252.15988"
   width="215.96001"
   viewBox="0 0 674.87501 788.00002"
   version="1.2"
   id="svg59"
   sodipodi:docname="Precipitation Legend.svg"
   inkscape:export-filename="Precipitation Legend.svg"
   inkscape:export-xdpi="96"
   inkscape:export-ydpi="96"
   inkscape:version="1.4 (86a8ad7, 2024-10-11)"
   xmlns:inkscape="http://www.inkscape.org/namespaces/inkscape"
   xmlns:sodipodi="http://sodipodi.sourceforge.net/DTD/sodipodi-0.dtd"
   xmlns="http://www.w3.org/2000/svg"
   xmlns:svg="http://www.w3.org/2000/svg"
   xmlns:rdf="http://www.w3.org/1999/02/22-rdf-syntax-ns#"
   xmlns:cc="http://creativecommons.org/ns#"
   xmlns:dc="http://purl.org/dc/elements/1.1/">
  <sodipodi:namedview
     id="namedview59"
     pagecolor="#ffffff"
     bordercolor="#000000"
     borderopacity="0.25"
     inkscape:showpageshadow="2"
     inkscape:pageopacity="0.0"
     inkscape:pagecheckerboard="0"
     inkscape:deskcolor="#d1d1d1"
     inkscape:document-units="px"
     inkscape:export-bgcolor="#ffffffff"
     inkscape:zoom="1.5593047"
     inkscape:cx="156.48"
     inkscape:cy="126.01771"
     inkscape:window-width="2560"
     inkscape:window-height="1009"
     inkscape:window-x="548"
     inkscape:window-y="-8"
     inkscape:window-maximized="1"
     inkscape:current-layer="g59">
    <inkscape:page
       x="0"
       y="0"
       width="674.875"
       height="788"
       id="page2"
       margin="0"
       bleed="0" />
  </sodipodi:namedview>
  <defs
     id="defs1" />
  <g
     stroke-width="1"
     stroke-linejoin="bevel"
     fill-rule="evenodd"
     fill="none"
     stroke="#000000"
     stroke-linecap="square"
     id="g59">
    <g
       stroke-width="1"
       stroke-linejoin="bevel"
       font-weight="400"
       font-style="normal"
       fill="none"
       stroke="#000000"
       stroke-opacity="1"
       font-size="54.1667px"
       stroke-linecap="square"
       font-family="'MS Shell Dlg 2'"
       id="g1" />
    <g
       stroke-width="1"
       stroke-linejoin="bevel"
       font-weight="400"
       font-style="normal"
       fill="none"
       stroke="#000000"
       stroke-opacity="1"
       font-size="54.1667px"
       stroke-linecap="square"
       font-family="'MS Shell Dlg 2'"
       id="g2" />
    <g
       stroke-width="1"
       stroke-linejoin="bevel"
       transform="scale(11.8023)"
       font-weight="400"
       font-style="normal"
       fill="none"
       stroke="#000000"
       stroke-opacity="1"
       font-size="54.1667px"
       stroke-linecap="square"
       font-family="'MS Shell Dlg 2'"
       id="g3" />
    <g
       stroke-width="1"
       stroke-linejoin="bevel"
       transform="scale(0.999262)"
       font-weight="400"
       font-style="normal"
       fill="none"
       stroke="#000000"
       stroke-opacity="1"
       font-size="54.1667px"
       stroke-linecap="square"
       font-family="'MS Shell Dlg 2'"
       id="g4" />
    <g
       transform="scale(0.999262)"
       font-weight="400"
       font-style="normal"
       fill="#ffffff"
       stroke="none"
       fill-opacity="1"
       font-size="54.1667px"
       font-family="'MS Shell Dlg 2'"
       id="g5">
      <path
         vector-effect="none"
         d="M -2,-2 H 981 V 791 H -2 V -2"
         fill-rule="evenodd"
         id="path4" />
    </g>
    <g
       stroke-width="1"
       stroke-linejoin="bevel"
       transform="scale(0.999262)"
       font-weight="400"
       font-style="normal"
       fill="none"
       stroke="#000000"
       stroke-opacity="1"
       font-size="54.1667px"
       stroke-linecap="square"
       font-family="'MS Shell Dlg 2'"
       id="g6" />
    <g
       stroke-width="1"
       stroke-linejoin="bevel"
       transform="scale(11.8023)"
       font-weight="400"
       font-style="normal"
       fill="none"
       stroke="#000000"
       stroke-opacity="1"
       font-size="54.1667px"
       stroke-linecap="square"
       font-family="'MS Shell Dlg 2'"
       id="g7" />
    <g
       stroke-width="1"
       stroke-linejoin="bevel"
       transform="scale(11.8023)"
       font-weight="400"
       font-style="normal"
       fill="none"
       stroke="#000000"
       stroke-opacity="1"
       font-size="54.1667px"
       stroke-linecap="square"
       font-family="'MS Shell Dlg 2'"
       id="g8" />
    <g
       stroke-width="1"
       stroke-linejoin="bevel"
       transform="scale(11.8023)"
       font-weight="400"
       font-style="normal"
       fill="none"
       stroke="#000000"
       stroke-opacity="1"
       font-size="54.1667px"
       stroke-linecap="square"
       font-family="'MS Shell Dlg 2'"
       id="g9" />
    <g
       stroke-width="1"
       stroke-linejoin="bevel"
       transform="scale(11.8023)"
       font-weight="400"
       font-style="normal"
       fill="none"
       stroke="#000000"
       stroke-opacity="1"
       font-size="54.1667px"
       stroke-linecap="square"
       font-family="'MS Shell Dlg 2'"
       id="g10" />
    <g
       stroke-width="1"
       stroke-linejoin="bevel"
       transform="scale(11.8023)"
       font-weight="400"
       font-style="normal"
       fill="none"
       stroke="#000000"
       stroke-opacity="1"
       font-size="54.1667px"
       stroke-linecap="square"
       font-family="'MS Shell Dlg 2'"
       id="g11" />
    <g
       stroke-width="1"
       stroke-linejoin="bevel"
       transform="scale(11.8023)"
       font-weight="400"
       font-style="normal"
       fill="none"
       stroke="#000000"
       stroke-opacity="1"
       font-size="54.1667px"
       stroke-linecap="square"
       font-family="'MS Shell Dlg 2'"
       id="g12" />
    <g
       stroke-width="1"
       stroke-linejoin="bevel"
       transform="scale(11.8023)"
       font-weight="400"
       font-style="normal"
       fill="none"
       stroke="#000000"
       stroke-opacity="1"
       font-size="54.1667px"
       stroke-linecap="square"
       font-family="'MS Shell Dlg 2'"
       id="g13" />
    <g
       transform="scale(11.8023)"
       font-weight="400"
       font-style="normal"
       fill="#ffffff"
       stroke="none"
       fill-opacity="1"
       font-size="54.1667px"
       font-family="'MS Shell Dlg 2'"
       id="g14">
      <path
         vector-effect="none"
         d="M 0,0 H 82.824 V 66.7666 H 0 V 0"
         fill-rule="evenodd"
         id="path13" />
    </g>
    <g
       stroke-width="1"
       stroke-linejoin="bevel"
       transform="scale(11.8023)"
       font-weight="400"
       font-style="normal"
       fill="none"
       stroke="#000000"
       stroke-opacity="1"
       font-size="54.1667px"
       stroke-linecap="square"
       font-family="'MS Shell Dlg 2'"
       id="g15" />
    <g
       stroke-width="1"
       stroke-linejoin="bevel"
       transform="scale(0.999262)"
       font-weight="400"
       font-style="normal"
       fill="none"
       stroke="#000000"
       stroke-opacity="1"
       font-size="54.1667px"
       stroke-linecap="square"
       font-family="'MS Shell Dlg 2'"
       id="g16" />
    <g
       stroke-width="1"
       stroke-linejoin="bevel"
       transform="scale(0.999262)"
       font-weight="400"
       font-style="normal"
       fill="none"
       stroke="#000000"
       stroke-opacity="1"
       font-size="54.1667px"
       stroke-linecap="square"
       font-family="'MS Shell Dlg 2'"
       id="g17" />
    <g
       transform="matrix(0.999262,0,0,0.999262,23.6046,104.848)"
       font-weight="400"
       font-style="normal"
       fill="#000000"
       stroke="none"
       fill-opacity="1"
       font-size="54.1667px"
       font-family="'MS Shell Dlg 2'"
       id="g18">
      <path
         vector-effect="none"
         d="M 11.9268,0 V -29.042 H 1.07813 v -3.8857 H 27.1777 v 3.8857 H 16.2842 V 0 h -4.3574 m 12.6005,-11.9268 c 0,-4.4173 1.2279,-7.6891 3.6836,-9.8154 2.0515,-1.7669 4.5521,-2.6504 7.502,-2.6504 3.2793,0 5.9596,1.0744 8.041,3.2232 2.0814,2.1487 3.1221,5.1173 3.1221,8.9057 0,3.06969 -0.4605,5.48424 -1.3814,7.24368 -0.9209,1.75944 -2.261,3.12581 -4.0205,4.099122 -1.7594,0.9733068 -3.6798,1.459961 -5.7612,1.459961 -3.3392,0 -6.0383,-1.070639 -8.0972,-3.211913 -2.0589,-2.14128 -3.0884,-5.22591 -3.0884,-9.25395 m 4.1553,0 c 0,3.05473 0.6664,5.342 1.999,6.86186 1.3327,1.51986 3.0098,2.27978 5.0313,2.27978 2.0065,0 3.6761,-0.76367 5.0088,-2.29101 1.3327,-1.52735 1.999,-3.8558 1.999,-6.98533 0,-2.9499 -0.6701,-5.1848 -2.0103,-6.7046 -1.3401,-1.5199 -3.006,-2.2798 -4.9975,-2.2798 -2.0215,0 -3.6986,0.7562 -5.0313,2.2686 -1.3326,1.5123 -1.999,3.7959 -1.999,6.8505 m 31.7549,8.31059 0.584,3.5712881 c -1.138,0.2395829 -2.1563,0.3593749 -3.0547,0.3593749 -1.4675,0 -2.6055,-0.2320962 -3.4141,-0.696289 C 53.7441,-0.846029 53.1751,-1.45622 52.8457,-2.2124 52.5163,-2.96859 52.3516,-4.55957 52.3516,-6.98535 V -20.709 h -2.9649 v -3.1445 h 2.9649 v -5.9072 l 4.0205,-2.4258 v 8.333 h 4.0654 v 3.1445 h -4.0654 v 13.94826 c 0,1.15299 0.0711,1.8942 0.2133,2.22363 0.1423,0.32943 0.3744,0.59147 0.6963,0.78613 0.322,0.19467 0.7824,0.292 1.3814,0.292 0.4492,0 1.0407,-0.05241 1.7744,-0.15723 m 19.5039,0.67383 c -1.4974,1.27278 -2.9386,2.171221 -4.3237,2.69531 -1.3851,0.524088 -2.8713,0.786133 -4.4585,0.786133 -2.6205,0 -4.6345,-0.640137 -6.042,-1.920413 -1.4076,-1.28027 -2.1113,-2.91618 -2.1113,-4.90771 0,-1.16797 0.2657,-2.23487 0.7973,-3.20069 0.5316,-0.96585 1.2279,-1.74075 2.0889,-2.32475 0.861,-0.5839 1.8306,-1.0257 2.9087,-1.3251 0.7936,-0.2097 1.9915,-0.4118 3.5937,-0.6065 3.2644,-0.3893 5.6677,-0.8535 7.21,-1.3926 0.015,-0.554 0.0225,-0.9059 0.0225,-1.0556 0,-1.6472 -0.3819,-2.8077 -1.1456,-3.4815 -1.0332,-0.9134 -2.568,-1.3701 -4.6044,-1.3701 -1.9017,0 -3.3056,0.3332 -4.2115,0.9995 -0.9059,0.6664 -1.576,1.8456 -2.0102,3.5376 l -3.9532,-0.5391 c 0.3594,-1.692 0.9509,-3.0584 1.7745,-4.0991 0.8235,-1.0407 2.014,-1.8418 3.5713,-2.4033 1.5572,-0.5615 3.3616,-0.8423 5.413,-0.8423 2.0365,0 3.6911,0.2396 4.9639,0.7188 1.2728,0.4791 2.2087,1.0818 2.8076,1.8081 0.599,0.7262 1.0182,1.6434 1.2578,2.7514 0.1348,0.6888 0.2022,1.9317 0.2022,3.7286 v 5.39058 c 0,3.75847 0.0861,6.13558 0.2583,7.13135 C 84.1229,-1.868 84.4635,-0.913411 84.9727,0 H 80.75 c -0.4193,-0.838542 -0.6888,-1.81934 -0.8086,-2.94238 m -0.3369,-9.02932 c -1.4675,0.599 -3.6686,1.1081 -6.6035,1.5274 -1.6621,0.2395 -2.8376,0.50908 -3.5264,0.80856 -0.6888,0.29948 -1.2204,0.73747 -1.5947,1.31396 -0.3744,0.5765 -0.5615,1.21664 -0.5615,1.92041 0,1.07813 0.408,1.97657 1.2241,2.69532 0.8161,0.71875 2.0102,1.07812 3.5825,1.07812 1.5573,0 2.9424,-0.34066 4.1553,-1.02197 1.2129,-0.68132 2.1038,-1.61345 2.6728,-2.79639 0.4343,-0.91341 0.6514,-2.26107 0.6514,-4.04301 v -1.4824 M 89.8643,0 v -32.9277 h 4.0429 V 0 h -4.0429 m 29.3407,0 -8.737,-32.9277 h 4.47 l 5.008,21.5849 c 0.539,2.26109 1.004,4.50719 1.393,6.73831 0.838,-3.51888 1.333,-5.54781 1.482,-6.08691 l 6.267,-22.2363 h 5.256 l 4.717,16.666 c 1.182,4.1328 2.036,8.01854 2.56,11.65721 0.419,-2.08138 0.966,-4.46973 1.64,-7.16501 l 5.166,-21.1582 h 4.38 L 143.777,0 h -4.2 l -6.94,-25.0889 c -0.584,-2.0963 -0.929,-3.3841 -1.033,-3.8632 -0.345,1.5123 -0.667,2.8001 -0.966,3.8632 L 123.652,0 h -4.447 m 37.162,-28.2783 v -4.6494 h 4.043 v 4.6494 h -4.043 m 0,28.2783 v -23.8535 h 4.043 V 0 h -4.043 m 10.196,0 v -23.8535 h 3.639 v 3.3916 c 1.752,-2.6205 4.283,-3.9307 7.592,-3.9307 1.437,0 2.759,0.2583 3.964,0.7749 1.206,0.5166 2.108,1.1942 2.707,2.0327 0.599,0.8386 1.018,1.8343 1.258,2.9873 0.149,0.7487 0.224,2.059 0.224,3.9307 V 0 h -4.043 v -14.5098 c 0,-1.6471 -0.157,-2.8787 -0.471,-3.6948 -0.315,-0.8161 -0.873,-1.4674 -1.674,-1.9541 -0.801,-0.4866 -1.74,-0.73 -2.819,-0.73 -1.722,0 -3.208,0.5466 -4.458,1.6397 -1.25,1.0931 -1.876,3.167 -1.876,6.2217 V 0 h -4.043 m 34.406,-3.61621 0.584,3.5712881 c -1.138,0.2395829 -2.157,0.3593749 -3.055,0.3593749 -1.467,0 -2.605,-0.2320962 -3.414,-0.696289 -0.809,-0.464193 -1.378,-1.074384 -1.707,-1.830564 -0.329,-0.75619 -0.494,-2.34717 -0.494,-4.77295 V -20.709 h -2.965 v -3.1445 h 2.965 v -5.9072 l 4.02,-2.4258 v 8.333 h 4.066 v 3.1445 h -4.066 v 13.94826 c 0,1.15299 0.071,1.8942 0.214,2.22363 0.142,0.32943 0.374,0.59147 0.696,0.78613 0.322,0.19467 0.782,0.292 1.381,0.292 0.45,0 1.041,-0.05241 1.775,-0.15723 m 20.267,-4.06543 4.178,0.5166 c -0.659,2.44076 -1.879,4.33496 -3.661,5.68262 -1.782,1.347654 -4.058,2.021483 -6.828,2.021483 -3.489,0 -6.256,-1.074382 -8.3,-3.223143 -2.043,-2.14876 -3.065,-5.16227 -3.065,-9.04052 0,-4.013 1.033,-7.1276 3.099,-9.3438 2.067,-2.2161 4.747,-3.3242 8.041,-3.3242 3.19,0 5.795,1.0856 7.817,3.2569 2.021,2.1712 3.032,5.2259 3.032,9.164 0,0.2396 -0.008,0.599 -0.023,1.0781 h -17.789 c 0.15,2.62049 0.891,4.627 2.224,6.01958 1.333,1.39257 2.995,2.08886 4.986,2.08886 1.483,0 2.748,-0.38932 3.796,-1.16797 1.048,-0.77864 1.879,-2.02148 2.493,-3.72851 m -13.274,-6.53616 h 13.319 c -0.179,-2.0065 -0.689,-3.5114 -1.527,-4.5146 -1.288,-1.5573 -2.957,-2.336 -5.009,-2.336 -1.857,0 -3.418,0.6215 -4.683,1.8643 -1.265,1.2428 -1.965,2.9049 -2.1,4.9863 M 230.44,0 v -23.8535 h 3.639 v 3.6162 c 0.928,-1.6921 1.786,-2.8076 2.572,-3.3467 0.786,-0.539 1.651,-0.8086 2.594,-0.8086 1.363,0 2.748,0.4343 4.155,1.3028 l -1.392,3.7509 c -0.988,-0.584 -1.977,-0.8759 -2.965,-0.8759 -0.884,0 -1.677,0.2657 -2.381,0.7973 -0.704,0.5316 -1.205,1.2691 -1.505,2.2124 -0.449,1.4375 -0.674,3.0098 -0.674,4.7168 V 0 h -4.043 m 28.64,0 v -32.9277 h 12.421 c 2.186,0 3.856,0.1048 5.009,0.3144 1.617,0.2695 2.972,0.7824 4.065,1.5386 1.093,0.7562 1.973,1.8156 2.639,3.1782 0.667,1.3626 1,2.86 1,4.4922 0,2.8001 -0.891,5.1698 -2.673,7.1089 -1.782,1.9391 -5.001,2.9087 -9.658,2.9087 h -8.445 V 0 h -4.358 m 4.358,-17.2725 h 8.512 c 2.815,0 4.814,-0.524 5.997,-1.5722 1.183,-1.0482 1.775,-2.5231 1.775,-4.4248 0,-1.3776 -0.348,-2.5568 -1.045,-3.5376 -0.696,-0.9808 -1.613,-1.6284 -2.751,-1.9429 -0.734,-0.1947 -2.089,-0.292 -4.066,-0.292 h -8.422 v 11.7695 M 289.19,0 v -23.8535 h 3.639 v 3.6162 c 0.928,-1.6921 1.786,-2.8076 2.572,-3.3467 0.786,-0.539 1.651,-0.8086 2.594,-0.8086 1.363,0 2.748,0.4343 4.155,1.3028 l -1.392,3.7509 c -0.988,-0.584 -1.977,-0.8759 -2.965,-0.8759 -0.884,0 -1.677,0.2657 -2.381,0.7973 -0.704,0.5316 -1.205,1.2691 -1.505,2.2124 -0.449,1.4375 -0.674,3.0098 -0.674,4.7168 V 0 h -4.043 m 31.687,-7.68164 4.178,0.5166 c -0.659,2.44076 -1.88,4.33496 -3.661,5.68262 -1.782,1.347654 -4.058,2.021483 -6.829,2.021483 -3.489,0 -6.255,-1.074382 -8.299,-3.223143 -2.044,-2.14876 -3.066,-5.16227 -3.066,-9.04052 0,-4.013 1.033,-7.1276 3.1,-9.3438 2.066,-2.2161 4.747,-3.3242 8.041,-3.3242 3.189,0 5.795,1.0856 7.816,3.2569 2.022,2.1712 3.032,5.2259 3.032,9.164 0,0.2396 -0.007,0.599 -0.022,1.0781 h -17.789 c 0.15,2.62049 0.891,4.627 2.224,6.01958 1.332,1.39257 2.994,2.08886 4.986,2.08886 1.482,0 2.748,-0.38932 3.796,-1.16797 1.048,-0.77864 1.879,-2.02148 2.493,-3.72851 m -13.274,-6.53616 h 13.319 c -0.18,-2.0065 -0.689,-3.5114 -1.527,-4.5146 -1.288,-1.5573 -2.958,-2.336 -5.009,-2.336 -1.857,0 -3.418,0.6215 -4.683,1.8643 -1.266,1.2428 -1.966,2.9049 -2.1,4.9863 m 38.088,5.4805 3.976,0.5166 c -0.434,2.74023 -1.546,4.88525 -3.335,6.43506 -1.79,1.5498 -3.987,2.324703 -6.593,2.324703 -3.264,0 -5.888,-1.066895 -7.872,-3.200683 -1.984,-2.13379 -2.976,-5.19222 -2.976,-9.17528 0,-2.5755 0.426,-4.8291 1.28,-6.7608 0.853,-1.9316 2.152,-3.3803 3.897,-4.3461 1.744,-0.9659 3.642,-1.4488 5.694,-1.4488 2.59,0 4.709,0.6551 6.356,1.9654 1.647,1.3102 2.703,3.1707 3.167,5.5815 l -3.931,0.6064 c -0.374,-1.6022 -1.036,-2.8076 -1.987,-3.6162 -0.951,-0.8086 -2.1,-1.2129 -3.448,-1.2129 -2.037,0 -3.691,0.73 -4.964,2.19 -1.273,1.4599 -1.909,3.7697 -1.909,6.9292 0,3.20441 0.614,5.53286 1.842,6.98533 1.228,1.45248 2.83,2.17871 4.806,2.17871 1.588,0 2.913,-0.48665 3.976,-1.45996 1.063,-0.9733 1.737,-2.4707 2.021,-4.49218 m 7.457,-19.541 v -4.6494 h 4.043 v 4.6494 h -4.043 m 0,28.2783 v -23.8535 h 4.043 V 0 h -4.043 m 10.197,9.1416 v -32.9951 h 3.683 v 3.0996 c 0.869,-1.2129 1.85,-2.1226 2.943,-2.729 1.093,-0.6065 2.418,-0.9097 3.975,-0.9097 2.037,0 3.834,0.5241 5.391,1.5723 1.557,1.0482 2.733,2.5268 3.526,4.436 0.794,1.9092 1.191,4.0018 1.191,6.2779 0,2.44071 -0.438,4.63814 -1.314,6.59224 -0.876,1.9541 -2.149,3.4515 -3.819,4.49219 -1.669,1.0406874 -3.425,1.561033 -5.267,1.561033 -1.347,0 -2.557,-0.284506 -3.627,-0.853516 -1.071,-0.569011 -1.951,-1.287757 -2.639,-2.156247 V 9.1416 h -4.043 m 3.661,-20.9336 c 0,3.06967 0.621,5.33822 1.864,6.80567 1.243,1.46745 2.748,2.20117 4.515,2.20117 1.797,0 3.335,-0.75992 4.615,-2.27978 1.281,-1.51986 1.921,-3.87451 1.921,-7.06396 0,-3.0397 -0.625,-5.3158 -1.876,-6.8281 -1.25,-1.5124 -2.744,-2.2686 -4.481,-2.2686 -1.722,0 -3.245,0.8049 -4.57,2.4146 -1.326,1.6097 -1.988,3.9493 -1.988,7.019 m 21.939,-16.4863 v -4.6494 h 4.043 v 4.6494 h -4.043 m 0,28.2783 v -23.8535 h 4.043 V 0 h -4.043 m 19.024,-3.61621 0.584,3.5712881 c -1.138,0.2395829 -2.157,0.3593749 -3.055,0.3593749 -1.467,0 -2.605,-0.2320962 -3.414,-0.696289 -0.809,-0.464193 -1.378,-1.074384 -1.707,-1.830564 -0.329,-0.75619 -0.494,-2.34717 -0.494,-4.77295 V -20.709 h -2.965 v -3.1445 h 2.965 v -5.9072 l 4.02,-2.4258 v 8.333 h 4.066 v 3.1445 h -4.066 v 13.94826 c 0,1.15299 0.071,1.8942 0.214,2.22363 0.142,0.32943 0.374,0.59147 0.696,0.78613 0.322,0.19467 0.782,0.292 1.381,0.292 0.45,0 1.041,-0.05241 1.775,-0.15723 m 19.504,0.67383 c -1.498,1.27278 -2.939,2.171221 -4.324,2.69531 -1.385,0.524088 -2.871,0.786133 -4.459,0.786133 -2.62,0 -4.634,-0.640137 -6.042,-1.920413 -1.407,-1.28027 -2.111,-2.91618 -2.111,-4.90771 0,-1.16797 0.266,-2.23487 0.797,-3.20069 0.532,-0.96585 1.228,-1.74075 2.089,-2.32475 0.861,-0.5839 1.831,-1.0257 2.909,-1.3251 0.794,-0.2097 1.992,-0.4118 3.594,-0.6065 3.264,-0.3893 5.667,-0.8535 7.21,-1.3926 0.015,-0.554 0.022,-0.9059 0.022,-1.0556 0,-1.6472 -0.382,-2.8077 -1.145,-3.4815 -1.034,-0.9134 -2.568,-1.3701 -4.605,-1.3701 -1.902,0 -3.305,0.3332 -4.211,0.9995 -0.906,0.6664 -1.576,1.8456 -2.01,3.5376 l -3.954,-0.5391 c 0.36,-1.692 0.951,-3.0584 1.775,-4.0991 0.823,-1.0407 2.014,-1.8418 3.571,-2.4033 1.557,-0.5615 3.362,-0.8423 5.413,-0.8423 2.037,0 3.691,0.2396 4.964,0.7188 1.273,0.4791 2.209,1.0818 2.808,1.8081 0.599,0.7262 1.018,1.6434 1.257,2.7514 0.135,0.6888 0.203,1.9317 0.203,3.7286 v 5.39058 c 0,3.75847 0.086,6.13558 0.258,7.13135 0.172,0.99577 0.513,1.950359 1.022,2.86377 h -4.223 c -0.419,-0.838542 -0.689,-1.81934 -0.808,-2.94238 m -0.337,-9.02932 c -1.468,0.599 -3.669,1.1081 -6.604,1.5274 -1.662,0.2395 -2.837,0.50908 -3.526,0.80856 -0.689,0.29948 -1.221,0.73747 -1.595,1.31396 -0.374,0.5765 -0.561,1.21664 -0.561,1.92041 0,1.07813 0.408,1.97657 1.224,2.69532 0.816,0.71875 2.01,1.07812 3.582,1.07812 1.558,0 2.943,-0.34066 4.156,-1.02197 1.212,-0.68132 2.103,-1.61345 2.672,-2.79639 0.435,-0.91341 0.652,-2.26107 0.652,-4.04301 v -1.4824 m 19.177,8.35549 0.583,3.5712881 c -1.138,0.2395829 -2.156,0.3593749 -3.054,0.3593749 -1.468,0 -2.606,-0.2320962 -3.414,-0.696289 -0.809,-0.464193 -1.378,-1.074384 -1.707,-1.830564 -0.33,-0.75619 -0.494,-2.34717 -0.494,-4.77295 V -20.709 h -2.965 v -3.1445 h 2.965 v -5.9072 l 4.02,-2.4258 v 8.333 h 4.066 v 3.1445 h -4.066 v 13.94826 c 0,1.15299 0.071,1.8942 0.213,2.22363 0.143,0.32943 0.375,0.59147 0.697,0.78613 0.322,0.19467 0.782,0.292 1.381,0.292 0.449,0 1.041,-0.05241 1.775,-0.15723 m 3.96,-24.66209 v -4.6494 h 4.043 v 4.6494 h -4.043 m 0,28.2783 v -23.8535 h 4.043 V 0 h -4.043 m 8.692,-11.9268 c 0,-4.4173 1.228,-7.6891 3.683,-9.8154 2.052,-1.7669 4.553,-2.6504 7.502,-2.6504 3.28,0 5.96,1.0744 8.041,3.2232 2.082,2.1487 3.122,5.1173 3.122,8.9057 0,3.06969 -0.46,5.48424 -1.381,7.24368 -0.921,1.75944 -2.261,3.12581 -4.02,4.099122 -1.76,0.9733068 -3.68,1.459961 -5.762,1.459961 -3.339,0 -6.038,-1.070639 -8.097,-3.211913 -2.059,-2.14128 -3.088,-5.22591 -3.088,-9.25395 m 4.155,0 c 0,3.05473 0.666,5.342 1.999,6.86186 1.333,1.51986 3.01,2.27978 5.031,2.27978 2.007,0 3.676,-0.76367 5.009,-2.29101 1.333,-1.52735 1.999,-3.8558 1.999,-6.98533 0,-2.9499 -0.67,-5.1848 -2.01,-6.7046 -1.34,-1.5199 -3.006,-2.2798 -4.998,-2.2798 -2.021,0 -3.698,0.7562 -5.031,2.2686 -1.333,1.5123 -1.999,3.7959 -1.999,6.8505 M 486.048,0 v -23.8535 h 3.639 v 3.3916 c 1.751,-2.6205 4.282,-3.9307 7.591,-3.9307 1.438,0 2.759,0.2583 3.965,0.7749 1.205,0.5166 2.107,1.1942 2.706,2.0327 0.599,0.8386 1.018,1.8343 1.258,2.9873 0.15,0.7487 0.225,2.059 0.225,3.9307 V 0 h -4.043 v -14.5098 c 0,-1.6471 -0.158,-2.8787 -0.472,-3.6948 -0.314,-0.8161 -0.872,-1.4674 -1.673,-1.9541 -0.801,-0.4866 -1.741,-0.73 -2.819,-0.73 -1.722,0 -3.208,0.5466 -4.459,1.6397 -1.25,1.0931 -1.875,3.167 -1.875,6.2217 V 0 h -4.043 m 46.07,9.68066 c -2.231,-2.8151 -4.118,-6.10937 -5.66,-9.882808 -1.542,-3.773442 -2.313,-7.681642 -2.313,-11.724652 0,-3.5638 0.576,-6.9778 1.729,-10.2421 1.348,-3.7885 3.429,-7.5619 6.244,-11.3204 h 2.898 c -1.812,3.1146 -3.01,5.3383 -3.594,6.6709 -0.914,2.0664 -1.632,4.2227 -2.156,6.4688 -0.644,2.8001 -0.966,5.6152 -0.966,8.4453 0,7.20248 2.238,14.39746 6.716,21.58496 h -2.898 M 539.704,0 v -23.8535 h 3.616 v 3.3467 c 0.749,-1.168 1.745,-2.1076 2.988,-2.8189 1.242,-0.7112 2.657,-1.0669 4.245,-1.0669 1.767,0 3.215,0.3669 4.346,1.1006 1.13,0.7337 1.928,1.7594 2.392,3.0772 1.887,-2.7852 4.342,-4.1778 7.367,-4.1778 2.366,0 4.185,0.6551 5.458,1.9654 1.273,1.3102 1.909,3.3279 1.909,6.0532 V 0 h -4.02 v -15.0264 c 0,-1.6172 -0.131,-2.7814 -0.393,-3.4926 -0.262,-0.7113 -0.738,-1.2841 -1.426,-1.7183 -0.689,-0.4342 -1.498,-0.6514 -2.426,-0.6514 -1.677,0 -3.07,0.5578 -4.178,1.6734 -1.108,1.1155 -1.662,2.9012 -1.662,5.3569 V 0 h -4.043 v -15.498 c 0,-1.7969 -0.33,-3.1446 -0.988,-4.043 -0.659,-0.8985 -1.737,-1.3477 -3.235,-1.3477 -1.138,0 -2.19,0.2995 -3.155,0.8985 -0.966,0.5989 -1.666,1.4749 -2.101,2.6279 -0.434,1.153 -0.651,2.8151 -0.651,4.9863 V 0 h -4.043 m 38.313,0 v -23.8535 h 3.616 v 3.3467 c 0.748,-1.168 1.744,-2.1076 2.987,-2.8189 1.243,-0.7112 2.658,-1.0669 4.245,-1.0669 1.767,0 3.216,0.3669 4.346,1.1006 1.131,0.7337 1.928,1.7594 2.393,3.0772 1.886,-2.7852 4.342,-4.1778 7.367,-4.1778 2.366,0 4.185,0.6551 5.458,1.9654 1.272,1.3102 1.909,3.3279 1.909,6.0532 V 0 h -4.021 v -15.0264 c 0,-1.6172 -0.131,-2.7814 -0.393,-3.4926 -0.262,-0.7113 -0.737,-1.2841 -1.426,-1.7183 -0.689,-0.4342 -1.497,-0.6514 -2.426,-0.6514 -1.677,0 -3.069,0.5578 -4.177,1.6734 -1.109,1.1155 -1.663,2.9012 -1.663,5.3569 V 0 h -4.043 v -15.498 c 0,-1.7969 -0.329,-3.1446 -0.988,-4.043 -0.659,-0.8985 -1.737,-1.3477 -3.234,-1.3477 -1.138,0 -2.19,0.2995 -3.156,0.8985 -0.966,0.5989 -1.666,1.4749 -2.1,2.6279 -0.434,1.153 -0.651,2.8151 -0.651,4.9863 V 0 h -4.043 m 40.962,9.68066 h -2.897 c 4.477,-7.1875 6.716,-14.38248 6.716,-21.58496 0,-2.8151 -0.322,-5.6077 -0.966,-8.3779 -0.509,-2.2461 -1.22,-4.4024 -2.134,-6.4688 -0.584,-1.3476 -1.789,-3.5937 -3.616,-6.7383 h 2.897 c 2.816,3.7585 4.897,7.5319 6.245,11.3204 1.153,3.2643 1.729,6.6783 1.729,10.2421 0,4.04301 -0.775,7.95121 -2.325,11.724652 -1.549,3.773438 -3.432,7.067708 -5.649,9.882808"
         fill-rule="nonzero"
         id="path17" />
    </g>
    <g
       stroke-width="1"
       stroke-linejoin="bevel"
       transform="scale(0.999262)"
       font-weight="400"
       font-style="normal"
       fill="none"
       stroke="#000000"
       stroke-opacity="1"
       font-size="54.1667px"
       stroke-linecap="square"
       font-family="'MS Shell Dlg 2'"
       id="g19" />
    <g
       stroke-width="1"
       stroke-linejoin="miter"
       transform="scale(11.8023)"
       font-weight="400"
       font-style="normal"
       fill="#30123b"
       stroke="#000000"
       fill-opacity="1"
       stroke-opacity="1"
       font-size="54.1667px"
       stroke-linecap="square"
       stroke-miterlimit="2"
       font-family="'MS Shell Dlg 2'"
       id="g20">
      <rect
         vector-effect="non-scaling-stroke"
         height="4"
         width="10"
         x="2"
         y="12.5256"
         id="rect19" />
    </g>
    <g
       stroke-width="1"
       stroke-linejoin="miter"
       transform="scale(0.999262)"
       font-weight="400"
       font-style="normal"
       fill="#30123b"
       stroke="#000000"
       fill-opacity="1"
       stroke-opacity="1"
       font-size="54.1667px"
       stroke-linecap="square"
       stroke-miterlimit="2"
       font-family="'MS Shell Dlg 2'"
       id="g21" />
    <g
       transform="matrix(0.999262,0,0,0.999262,165.232,187.799)"
       font-weight="400"
       font-style="normal"
       fill="#000000"
       stroke="none"
       fill-opacity="1"
       font-size="54.1667px"
       font-family="'MS Shell Dlg 2'"
       id="g22">
      <path
         vector-effect="none"
         d="m 2.51563,-14.3975 v -3.7734 l 21.80957,-9.209 v 4.0205 l -17.29493,7.0977 17.29493,7.16502 v 4.02051 L 2.51563,-14.3975 M 51.1621,-19.3613 H 29.4199 v -3.7735 h 21.7422 v 3.7735 m 0,9.99509 H 29.4199 v -3.77339 h 21.7422 v 3.77339 M 81.3535,0 V -7.88379 H 67.0684 v -3.70601 l 15.0263,-21.3379 h 3.3018 v 21.3379 h 4.4473 v 3.70601 H 85.3965 V 0 h -4.043 m 0,-11.5898 v -14.8467 l -10.3096,14.8467 h 10.3096 m 12.6182,-4.6495 c 0,-3.8932 0.4005,-7.0265 1.2016,-9.3999 0.8011,-2.3733 1.9916,-4.2039 3.5713,-5.4917 1.5794,-1.2877 3.5674,-1.9316 5.9634,-1.9316 1.767,0 3.317,0.3556 4.649,1.0669 1.333,0.7113 2.434,1.737 3.302,3.0771 0.869,1.3402 1.55,2.9724 2.044,4.8965 0.494,1.9242 0.741,4.5184 0.741,7.7827 0,3.8633 -0.396,6.98165 -1.19,9.35502 -0.794,2.37337 -1.98,4.20769 -3.56,5.50293 -1.58,1.2952497 -3.575,1.942873 -5.986,1.942873 -3.174,0 -5.6676,-1.13802 -7.4795,-3.414063 -2.1712,-2.74023 -3.2568,-7.20246 -3.2568,-13.38676 m 4.1553,0 c -10e-5,5.4056 0.6326,9.00313 1.898,10.79252 1.265,1.78939 2.826,2.68408 4.683,2.68408 1.857,0 3.418,-0.89843 4.683,-2.69531 1.265,-1.79687 1.898,-5.39059 1.898,-10.78129 0,-5.4205 -0.633,-9.0218 -1.898,-10.8037 -1.265,-1.7819 -2.841,-2.6728 -4.728,-2.6728 -1.857,0 -3.339,0.7861 -4.447,2.3584 -1.3928,2.0065 -2.0891,5.7125 -2.089,11.1181 m 21.423,0 c 0,-3.8932 0.4,-7.0265 1.201,-9.3999 0.802,-2.3733 1.992,-4.2039 3.572,-5.4917 1.58,-1.2877 3.567,-1.9316 5.963,-1.9316 1.767,0 3.317,0.3556 4.65,1.0669 1.332,0.7113 2.433,1.737 3.301,3.0771 0.869,1.3402 1.55,2.9724 2.044,4.8965 0.494,1.9242 0.741,4.5184 0.741,7.7827 0,3.8633 -0.396,6.98165 -1.19,9.35502 -0.794,2.37337 -1.98,4.20769 -3.56,5.50293 -1.58,1.2952497 -3.575,1.942873 -5.986,1.942873 -3.174,0 -5.668,-1.13802 -7.479,-3.414063 -2.172,-2.74023 -3.257,-7.20246 -3.257,-13.38676 m 4.155,0 c 0,5.4056 0.633,9.00313 1.898,10.79252 1.265,1.78939 2.826,2.68408 4.683,2.68408 1.857,0 3.418,-0.89843 4.683,-2.69531 1.266,-1.79687 1.898,-5.39059 1.898,-10.78129 0,-5.4205 -0.632,-9.0218 -1.898,-10.8037 -1.265,-1.7819 -2.841,-2.6728 -4.728,-2.6728 -1.857,0 -3.339,0.7861 -4.447,2.3584 -1.393,2.0065 -2.089,5.7125 -2.089,11.1181"
         fill-rule="nonzero"
         id="path21" />
    </g>
    <g
       stroke-width="1"
       stroke-linejoin="miter"
       transform="scale(0.999262)"
       font-weight="400"
       font-style="normal"
       fill="#30123b"
       stroke="#000000"
       fill-opacity="1"
       stroke-opacity="1"
       font-size="54.1667px"
       stroke-linecap="square"
       stroke-miterlimit="2"
       font-family="'MS Shell Dlg 2'"
       id="g23" />
    <g
       stroke-width="1"
       stroke-linejoin="miter"
       transform="scale(11.8023)"
       font-weight="400"
       font-style="normal"
       fill="#447ded"
       stroke="#000000"
       fill-opacity="1"
       stroke-opacity="1"
       font-size="54.1667px"
       stroke-linecap="square"
       stroke-miterlimit="2"
       font-family="'MS Shell Dlg 2'"
       id="g24">
      <rect
         vector-effect="non-scaling-stroke"
         height="4"
         width="10"
         x="2"
         y="19.0256"
         id="rect23" />
    </g>
    <g
       stroke-width="1"
       stroke-linejoin="miter"
       transform="scale(0.999262)"
       font-weight="400"
       font-style="normal"
       fill="#447ded"
       stroke="#000000"
       fill-opacity="1"
       stroke-opacity="1"
       font-size="54.1667px"
       stroke-linecap="square"
       stroke-miterlimit="2"
       font-family="'MS Shell Dlg 2'"
       id="g25" />
    <g
       transform="matrix(0.999262,0,0,0.999262,165.232,264.742)"
       font-weight="400"
       font-style="normal"
       fill="#000000"
       stroke="none"
       fill-opacity="1"
       font-size="54.1667px"
       font-family="'MS Shell Dlg 2'"
       id="g26">
      <path
         vector-effect="none"
         d="M 14.8691,0 V -7.88379 H 0.583984 V -11.5898 L 15.6104,-32.9277 h 3.3017 v 21.3379 h 4.4473 v 3.70601 H 18.9121 V 0 h -4.043 m 0,-11.5898 V -26.4365 L 4.55957,-11.5898 H 14.8691 m 12.6182,-4.6495 c 0,-3.8932 0.4006,-7.0265 1.2017,-9.3999 0.8011,-2.3733 1.9915,-4.2039 3.5713,-5.4917 1.5797,-1.2877 3.5675,-1.9316 5.9633,-1.9316 1.767,0 3.3168,0.3556 4.6494,1.0669 1.3327,0.7113 2.4333,1.737 3.3018,3.0771 0.8685,1.3402 1.5498,2.9724 2.044,4.8965 0.4941,1.9242 0.7412,4.5184 0.7412,7.7827 0,3.8633 -0.3969,6.98165 -1.1905,9.35502 -0.7936,2.37337 -1.9803,4.20769 -3.56,5.50293 -1.5798,1.2952497 -3.5751,1.942873 -5.9859,1.942873 -3.1744,0 -5.6676,-1.13802 -7.4795,-3.414063 -2.1712,-2.74023 -3.2568,-7.20246 -3.2568,-13.38676 m 4.1553,0 c 0,5.4056 0.6326,9.00313 1.8979,10.79252 1.2653,1.78939 2.8264,2.68408 4.6831,2.68408 1.8568,0 3.4178,-0.89843 4.6831,-2.69531 1.2653,-1.79687 1.898,-5.39059 1.898,-10.78129 0,-5.4205 -0.6327,-9.0218 -1.898,-10.8037 -1.2653,-1.7819 -2.8413,-2.6728 -4.728,-2.6728 -1.8568,0 -3.3392,0.7861 -4.4473,2.3584 -1.3925,2.0065 -2.0888,5.7125 -2.0888,11.1181 m 21.4228,0 c 0,-3.8932 0.4006,-7.0265 1.2017,-9.3999 0.8011,-2.3733 1.9915,-4.2039 3.5713,-5.4917 1.5797,-1.2877 3.5675,-1.9316 5.9634,-1.9316 1.7669,0 3.3167,0.3556 4.6494,1.0669 1.3327,0.7113 2.4332,1.737 3.3017,3.0771 0.8685,1.3402 1.5498,2.9724 2.044,4.8965 0.4941,1.9242 0.7412,4.5184 0.7412,7.7827 0,3.8633 -0.3968,6.98165 -1.1904,9.35502 -0.7937,2.37337 -1.9804,4.20769 -3.5601,5.50293 -1.5798,1.2952497 -3.575,1.942873 -5.9858,1.942873 -3.1745,0 -5.6677,-1.13802 -7.4795,-3.414063 C 54.151,-5.59277 53.0654,-10.055 53.0654,-16.2393 m 4.1553,0 c 0,5.4056 0.6327,9.00313 1.898,10.79252 1.2652,1.78939 2.8263,2.68408 4.6831,2.68408 1.8567,0 3.4178,-0.89843 4.6831,-2.69531 1.2653,-1.79687 1.8979,-5.39059 1.8979,-10.78129 0,-5.4205 -0.6326,-9.0218 -1.8979,-10.8037 -1.2653,-1.7819 -2.8413,-2.6728 -4.7281,-2.6728 -1.8567,0 -3.3392,0.7861 -4.4472,2.3584 -1.3926,2.0065 -2.0889,5.7125 -2.0889,11.1181 M 90.96,-9.88281 v -4.06539 h 12.421 v 4.06539 H 90.96 m 49.506,-14.98149 -4.021,0.3145 c -0.359,-1.5872 -0.868,-2.7402 -1.527,-3.459 -1.093,-1.153 -2.441,-1.7295 -4.043,-1.7295 -1.288,0 -2.418,0.3594 -3.392,1.0781 -1.272,0.9284 -2.276,2.2836 -3.009,4.0655 -0.734,1.7819 -1.116,4.32 -1.146,7.6142 0.973,-1.4824 2.164,-2.583 3.571,-3.3017 1.408,-0.7188 2.883,-1.0782 4.425,-1.0782 2.696,0 4.99,0.9921 6.884,2.9761 1.895,1.9841 2.842,4.5484 2.842,7.6929 0,2.0664 -0.446,3.98681 -1.337,5.76122 -0.891,1.77442 -2.115,3.1333 -3.672,4.076664 -1.557,0.9433597 -3.324,1.415039 -5.301,1.415039 -3.369,0 -6.117,-1.239095 -8.243,-3.717283 -2.126,-2.47819 -3.189,-6.56234 -3.189,-12.25244 0,-6.3639 1.175,-10.9909 3.526,-13.8809 2.051,-2.5156 4.814,-3.7734 8.288,-3.7734 2.591,0 4.713,0.7262 6.368,2.1787 1.654,1.4525 2.646,3.459 2.976,6.0195 m -16.509,14.1954 c 0,1.39253 0.296,2.72522 0.887,3.998 0.592,1.27279 1.419,2.24235 2.482,2.90869 1.063,0.66634 2.179,0.99951 3.347,0.99951 1.707,0 3.174,-0.6888 4.402,-2.0664 1.228,-1.37761 1.842,-3.24935 1.842,-5.6152 0,-2.2761 -0.606,-4.0692 -1.819,-5.3794 -1.213,-1.3103 -2.741,-1.9654 -4.582,-1.9654 -1.827,0 -3.377,0.6551 -4.65,1.9654 -1.273,1.3102 -1.909,3.0285 -1.909,5.1548 m 21.108,-5.5704 c 0,-3.8932 0.401,-7.0265 1.202,-9.3999 0.801,-2.3733 1.992,-4.2039 3.571,-5.4917 1.58,-1.2877 3.568,-1.9316 5.964,-1.9316 1.767,0 3.316,0.3556 4.649,1.0669 1.333,0.7113 2.433,1.737 3.302,3.0771 0.868,1.3402 1.55,2.9724 2.044,4.8965 0.494,1.9242 0.741,4.5184 0.741,7.7827 0,3.8633 -0.397,6.98165 -1.19,9.35502 -0.794,2.37337 -1.981,4.20769 -3.56,5.50293 -1.58,1.2952497 -3.575,1.942873 -5.986,1.942873 -3.175,0 -5.668,-1.13802 -7.48,-3.414063 -2.171,-2.74023 -3.257,-7.20246 -3.257,-13.38676 m 4.156,0 c 0,5.4056 0.632,9.00313 1.898,10.79252 1.265,1.78939 2.826,2.68408 4.683,2.68408 1.857,0 3.418,-0.89843 4.683,-2.69531 1.265,-1.79687 1.898,-5.39059 1.898,-10.78129 0,-5.4205 -0.633,-9.0218 -1.898,-10.8037 -1.265,-1.7819 -2.841,-2.6728 -4.728,-2.6728 -1.857,0 -3.339,0.7861 -4.447,2.3584 -1.393,2.0065 -2.089,5.7125 -2.089,11.1181 m 21.423,0 c 0,-3.8932 0.4,-7.0265 1.201,-9.3999 0.801,-2.3733 1.992,-4.2039 3.572,-5.4917 1.579,-1.2877 3.567,-1.9316 5.963,-1.9316 1.767,0 3.317,0.3556 4.649,1.0669 1.333,0.7113 2.434,1.737 3.302,3.0771 0.869,1.3402 1.55,2.9724 2.044,4.8965 0.494,1.9242 0.741,4.5184 0.741,7.7827 0,3.8633 -0.397,6.98165 -1.19,9.35502 -0.794,2.37337 -1.981,4.20769 -3.56,5.50293 -1.58,1.2952497 -3.575,1.942873 -5.986,1.942873 -3.175,0 -5.668,-1.13802 -7.48,-3.414063 -2.171,-2.74023 -3.256,-7.20246 -3.256,-13.38676 m 4.155,0 c 0,5.4056 0.632,9.00313 1.898,10.79252 1.265,1.78939 2.826,2.68408 4.683,2.68408 1.857,0 3.418,-0.89843 4.683,-2.69531 1.265,-1.79687 1.898,-5.39059 1.898,-10.78129 0,-5.4205 -0.633,-9.0218 -1.898,-10.8037 -1.265,-1.7819 -2.841,-2.6728 -4.728,-2.6728 -1.857,0 -3.339,0.7861 -4.447,2.3584 -1.393,2.0065 -2.089,5.7125 -2.089,11.1181"
         fill-rule="nonzero"
         id="path25" />
    </g>
    <g
       stroke-width="1"
       stroke-linejoin="miter"
       transform="scale(0.999262)"
       font-weight="400"
       font-style="normal"
       fill="#447ded"
       stroke="#000000"
       fill-opacity="1"
       stroke-opacity="1"
       font-size="54.1667px"
       stroke-linecap="square"
       stroke-miterlimit="2"
       font-family="'MS Shell Dlg 2'"
       id="g27" />
    <g
       stroke-width="1"
       stroke-linejoin="miter"
       transform="scale(11.8023)"
       font-weight="400"
       font-style="normal"
       fill="#2bdabd"
       stroke="#000000"
       fill-opacity="1"
       stroke-opacity="1"
       font-size="54.1667px"
       stroke-linecap="square"
       stroke-miterlimit="2"
       font-family="'MS Shell Dlg 2'"
       id="g28">
      <rect
         vector-effect="non-scaling-stroke"
         height="4"
         width="10"
         x="2"
         y="25.5256"
         id="rect27" />
    </g>
    <g
       stroke-width="1"
       stroke-linejoin="miter"
       transform="scale(0.999262)"
       font-weight="400"
       font-style="normal"
       fill="#2bdabd"
       stroke="#000000"
       fill-opacity="1"
       stroke-opacity="1"
       font-size="54.1667px"
       stroke-linecap="square"
       stroke-miterlimit="2"
       font-family="'MS Shell Dlg 2'"
       id="g29" />
    <g
       transform="matrix(0.999262,0,0,0.999262,165.232,341.685)"
       font-weight="400"
       font-style="normal"
       fill="#000000"
       stroke="none"
       fill-opacity="1"
       font-size="54.1667px"
       font-family="'MS Shell Dlg 2'"
       id="g30">
      <path
         vector-effect="none"
         d="m 22.8877,-24.8643 -4.0205,0.3145 c -0.3594,-1.5872 -0.8685,-2.7402 -1.5274,-3.459 -1.0931,-1.153 -2.4407,-1.7295 -4.0429,-1.7295 -1.2878,0 -2.4183,0.3594 -3.39163,1.0781 -1.27278,0.9284 -2.27604,2.2836 -3.00976,4.0655 -0.73373,1.7819 -1.11556,4.32 -1.14551,7.6142 0.97331,-1.4824 2.16374,-2.583 3.57129,-3.3017 1.40751,-0.7188 2.88251,-1.0782 4.42481,-1.0782 2.6953,0 4.9901,0.9921 6.8843,2.9761 1.8942,1.9841 2.8413,4.5484 2.8413,7.6929 0,2.0664 -0.4455,3.98681 -1.3364,5.76122 -0.891,1.77442 -2.1151,3.1333 -3.6724,4.076664 -1.5573,0.9433597 -3.3242,1.415039 -5.3008,1.415039 -3.36913,0 -6.11685,-1.239095 -8.24315,-3.717283 C 2.79264,-5.63395 1.72949,-9.7181 1.72949,-15.4082 c 0,-6.3639 1.17546,-10.9909 3.52637,-13.8809 2.05143,-2.5156 4.81414,-3.7734 8.28804,-3.7734 2.5905,0 4.7131,0.7262 6.3677,2.1787 1.6546,1.4525 2.6467,3.459 2.9761,6.0195 M 6.37891,-10.6689 c 0,1.39253 0.29573,2.72522 0.8872,3.998 0.59147,1.27279 1.41879,2.24235 2.48194,2.90869 1.06315,0.66634 2.17875,0.99951 3.34665,0.99951 1.7071,0 3.1745,-0.6888 4.4024,-2.0664 1.2278,-1.37761 1.8418,-3.24935 1.8418,-5.6152 0,-2.2761 -0.6065,-4.0692 -1.8194,-5.3794 -1.2129,-1.3103 -2.7402,-1.9654 -4.582,-1.9654 -1.8268,0 -3.37663,0.6551 -4.64941,1.9654 -1.27279,1.3102 -1.90918,3.0285 -1.90918,5.1548 m 21.10839,-5.5704 c 0,-3.8932 0.4006,-7.0265 1.2017,-9.3999 0.8011,-2.3733 1.9915,-4.2039 3.5713,-5.4917 1.5797,-1.2877 3.5675,-1.9316 5.9633,-1.9316 1.767,0 3.3168,0.3556 4.6494,1.0669 1.3327,0.7113 2.4333,1.737 3.3018,3.0771 0.8685,1.3402 1.5498,2.9724 2.044,4.8965 0.4941,1.9242 0.7412,4.5184 0.7412,7.7827 0,3.8633 -0.3969,6.98165 -1.1905,9.35502 -0.7936,2.37337 -1.9803,4.20769 -3.56,5.50293 -1.5798,1.2952497 -3.5751,1.942873 -5.9859,1.942873 -3.1744,0 -5.6676,-1.13802 -7.4795,-3.414063 -2.1712,-2.74023 -3.2568,-7.20246 -3.2568,-13.38676 m 4.1553,0 c 0,5.4056 0.6326,9.00313 1.8979,10.79252 1.2653,1.78939 2.8264,2.68408 4.6831,2.68408 1.8568,0 3.4178,-0.89843 4.6831,-2.69531 1.2653,-1.79687 1.898,-5.39059 1.898,-10.78129 0,-5.4205 -0.6327,-9.0218 -1.898,-10.8037 -1.2653,-1.7819 -2.8413,-2.6728 -4.728,-2.6728 -1.8568,0 -3.3392,0.7861 -4.4473,2.3584 -1.3925,2.0065 -2.0888,5.7125 -2.0888,11.1181 m 21.4228,0 c 0,-3.8932 0.4006,-7.0265 1.2017,-9.3999 0.8011,-2.3733 1.9915,-4.2039 3.5713,-5.4917 1.5797,-1.2877 3.5675,-1.9316 5.9634,-1.9316 1.7669,0 3.3167,0.3556 4.6494,1.0669 1.3327,0.7113 2.4332,1.737 3.3017,3.0771 0.8685,1.3402 1.5498,2.9724 2.044,4.8965 0.4941,1.9242 0.7412,4.5184 0.7412,7.7827 0,3.8633 -0.3968,6.98165 -1.1904,9.35502 -0.7937,2.37337 -1.9804,4.20769 -3.5601,5.50293 -1.5798,1.2952497 -3.575,1.942873 -5.9858,1.942873 -3.1745,0 -5.6677,-1.13802 -7.4795,-3.414063 C 54.151,-5.59277 53.0654,-10.055 53.0654,-16.2393 m 4.1553,0 c 0,5.4056 0.6327,9.00313 1.898,10.79252 1.2652,1.78939 2.8263,2.68408 4.6831,2.68408 1.8567,0 3.4178,-0.89843 4.6831,-2.69531 1.2653,-1.79687 1.8979,-5.39059 1.8979,-10.78129 0,-5.4205 -0.6326,-9.0218 -1.8979,-10.8037 -1.2653,-1.7819 -2.8413,-2.6728 -4.7281,-2.6728 -1.8567,0 -3.3392,0.7861 -4.4472,2.3584 -1.3926,2.0065 -2.0889,5.7125 -2.0889,11.1181 M 90.96,-9.88281 v -4.06539 h 12.421 v 4.06539 H 90.96 m 34.749,-7.97359 c -1.677,-0.614 -2.92,-1.49 -3.729,-2.628 -0.808,-1.138 -1.212,-2.5006 -1.212,-4.0879 0,-2.3958 0.861,-4.4098 2.583,-6.042 1.722,-1.6321 4.013,-2.4482 6.873,-2.4482 2.875,0 5.188,0.8348 6.94,2.5044 1.752,1.6696 2.628,3.7023 2.628,6.0981 0,1.5274 -0.401,2.8563 -1.202,3.9869 -0.801,1.1305 -2.017,2.0027 -3.65,2.6167 2.022,0.6588 3.56,1.722 4.616,3.1894 1.056,1.4675 1.584,3.2194 1.584,5.25587 0,2.8151 -0.996,5.18099 -2.988,7.09765 -1.991,1.91667 -4.612,2.875003 -7.861,2.875003 -3.249,0 -5.87,-0.962076 -7.861,-2.886233 -1.992,-1.92415 -2.988,-4.32373 -2.988,-7.19873 0,-2.14126 0.543,-3.93436 1.629,-5.37936 1.085,-1.445 2.631,-2.4296 4.638,-2.9536 M 124.9,-24.707 c 0,1.5573 0.502,2.83 1.505,3.8183 1.004,0.9883 2.306,1.4824 3.908,1.4824 1.558,0 2.834,-0.4903 3.83,-1.4711 0.996,-0.9808 1.494,-2.1825 1.494,-3.605 0,-1.4824 -0.513,-2.729 -1.539,-3.7398 -1.026,-1.0107 -2.302,-1.5161 -3.829,-1.5161 -1.543,0 -2.823,0.4942 -3.841,1.4824 -1.018,0.9883 -1.528,2.1713 -1.528,3.5489 m -1.302,15.20602 c 0,1.153 0.273,2.26856 0.819,3.34668 0.547,1.07813 1.359,1.91293 2.437,2.5044 1.079,0.59147 2.239,0.8872 3.482,0.8872 1.932,0 3.526,-0.62141 4.784,-1.86425 1.258,-1.24284 1.887,-2.82259 1.887,-4.73926 0,-1.94659 -0.648,-3.55629 -1.943,-4.82909 -1.295,-1.2728 -2.916,-1.9092 -4.863,-1.9092 -1.902,0 -3.478,0.6289 -4.728,1.8867 -1.25,1.2578 -1.875,2.8301 -1.875,4.71682 m 21.467,-6.73832 c 0,-3.8932 0.401,-7.0265 1.202,-9.3999 0.801,-2.3733 1.992,-4.2039 3.571,-5.4917 1.58,-1.2877 3.568,-1.9316 5.964,-1.9316 1.767,0 3.316,0.3556 4.649,1.0669 1.333,0.7113 2.433,1.737 3.302,3.0771 0.868,1.3402 1.55,2.9724 2.044,4.8965 0.494,1.9242 0.741,4.5184 0.741,7.7827 0,3.8633 -0.397,6.98165 -1.19,9.35502 -0.794,2.37337 -1.981,4.20769 -3.56,5.50293 -1.58,1.2952497 -3.575,1.942873 -5.986,1.942873 -3.175,0 -5.668,-1.13802 -7.48,-3.414063 -2.171,-2.74023 -3.257,-7.20246 -3.257,-13.38676 m 4.156,0 c 0,5.4056 0.632,9.00313 1.898,10.79252 1.265,1.78939 2.826,2.68408 4.683,2.68408 1.857,0 3.418,-0.89843 4.683,-2.69531 1.265,-1.79687 1.898,-5.39059 1.898,-10.78129 0,-5.4205 -0.633,-9.0218 -1.898,-10.8037 -1.265,-1.7819 -2.841,-2.6728 -4.728,-2.6728 -1.857,0 -3.339,0.7861 -4.447,2.3584 -1.393,2.0065 -2.089,5.7125 -2.089,11.1181 m 21.423,0 c 0,-3.8932 0.4,-7.0265 1.201,-9.3999 0.801,-2.3733 1.992,-4.2039 3.572,-5.4917 1.579,-1.2877 3.567,-1.9316 5.963,-1.9316 1.767,0 3.317,0.3556 4.649,1.0669 1.333,0.7113 2.434,1.737 3.302,3.0771 0.869,1.3402 1.55,2.9724 2.044,4.8965 0.494,1.9242 0.741,4.5184 0.741,7.7827 0,3.8633 -0.397,6.98165 -1.19,9.35502 -0.794,2.37337 -1.981,4.20769 -3.56,5.50293 -1.58,1.2952497 -3.575,1.942873 -5.986,1.942873 -3.175,0 -5.668,-1.13802 -7.48,-3.414063 -2.171,-2.74023 -3.256,-7.20246 -3.256,-13.38676 m 4.155,0 c 0,5.4056 0.632,9.00313 1.898,10.79252 1.265,1.78939 2.826,2.68408 4.683,2.68408 1.857,0 3.418,-0.89843 4.683,-2.69531 1.265,-1.79687 1.898,-5.39059 1.898,-10.78129 0,-5.4205 -0.633,-9.0218 -1.898,-10.8037 -1.265,-1.7819 -2.841,-2.6728 -4.728,-2.6728 -1.857,0 -3.339,0.7861 -4.447,2.3584 -1.393,2.0065 -2.089,5.7125 -2.089,11.1181"
         fill-rule="nonzero"
         id="path29" />
    </g>
    <g
       stroke-width="1"
       stroke-linejoin="miter"
       transform="scale(0.999262)"
       font-weight="400"
       font-style="normal"
       fill="#2bdabd"
       stroke="#000000"
       fill-opacity="1"
       stroke-opacity="1"
       font-size="54.1667px"
       stroke-linecap="square"
       stroke-miterlimit="2"
       font-family="'MS Shell Dlg 2'"
       id="g31" />
    <g
       stroke-width="1"
       stroke-linejoin="miter"
       transform="scale(11.8023)"
       font-weight="400"
       font-style="normal"
       fill="#8ef556"
       stroke="#000000"
       fill-opacity="1"
       stroke-opacity="1"
       font-size="54.1667px"
       stroke-linecap="square"
       stroke-miterlimit="2"
       font-family="'MS Shell Dlg 2'"
       id="g32">
      <rect
         vector-effect="non-scaling-stroke"
         height="4"
         width="10"
         x="2"
         y="32.0256"
         id="rect31" />
    </g>
    <g
       stroke-width="1"
       stroke-linejoin="miter"
       transform="scale(0.999262)"
       font-weight="400"
       font-style="normal"
       fill="#8ef556"
       stroke="#000000"
       fill-opacity="1"
       stroke-opacity="1"
       font-size="54.1667px"
       stroke-linecap="square"
       stroke-miterlimit="2"
       font-family="'MS Shell Dlg 2'"
       id="g33" />
    <g
       transform="matrix(0.999262,0,0,0.999262,165.232,417.629)"
       font-weight="400"
       font-style="normal"
       fill="#000000"
       stroke="none"
       fill-opacity="1"
       font-size="54.1667px"
       font-family="'MS Shell Dlg 2'"
       id="g34">
      <path
         vector-effect="none"
         d="m 8.13086,-17.8564 c -1.67708,-0.614 -2.91992,-1.49 -3.72852,-2.628 -0.80859,-1.138 -1.21289,-2.5006 -1.21289,-4.0879 0,-2.3958 0.86101,-4.4098 2.58301,-6.042 1.72201,-1.6321 4.01302,-2.4482 6.87304,-2.4482 2.875,0 5.1885,0.8348 6.9404,2.5044 1.752,1.6696 2.628,3.7023 2.628,6.0981 0,1.5274 -0.4006,2.8563 -1.2017,3.9869 -0.8011,1.1305 -2.0177,2.0027 -3.6499,2.6167 2.0215,0.6588 3.5601,1.722 4.6157,3.1894 1.0557,1.4675 1.5835,3.2194 1.5835,5.25587 0,2.8151 -0.9957,5.18099 -2.9873,7.09765 -1.9915,1.91667 -4.612,2.875003 -7.8613,2.875003 -3.24936,0 -5.8698,-0.962076 -7.86134,-2.886233 -1.99153,-1.92415 -2.9873,-4.32373 -2.9873,-7.19873 0,-2.14126 0.5428,-3.93436 1.62842,-5.37936 1.08561,-1.445 2.63167,-2.4296 4.63818,-2.9536 M 7.32227,-24.707 c 0,1.5573 0.50162,2.83 1.50488,3.8183 1.00325,0.9883 2.30595,1.4824 3.90825,1.4824 1.5572,0 2.8338,-0.4903 3.8295,-1.4711 0.9958,-0.9808 1.4937,-2.1825 1.4937,-3.605 0,-1.4824 -0.5129,-2.729 -1.5386,-3.7398 -1.0257,-1.0107 -2.3022,-1.5161 -3.8296,-1.5161 -1.5423,0 -2.82256,0.4942 -3.84079,1.4824 -1.01823,0.9883 -1.52734,2.1713 -1.52734,3.5489 M 6.01953,-9.50098 c 0,1.153 0.27328,2.26856 0.81983,3.34668 0.54654,1.07813 1.35888,1.91293 2.43701,2.5044 1.07813,0.59147 2.23863,0.8872 3.48143,0.8872 1.9317,0 3.5264,-0.62141 4.7842,-1.86425 1.2578,-1.24284 1.8867,-2.82259 1.8867,-4.73926 0,-1.94659 -0.6476,-3.55629 -1.9429,-4.82909 -1.2952,-1.2728 -2.9161,-1.9092 -4.8628,-1.9092 -1.9016,0 -3.47766,0.6289 -4.72798,1.8867 -1.25033,1.2578 -1.87549,2.8301 -1.87549,4.71682 M 27.4873,-16.2393 c 0,-3.8932 0.4006,-7.0265 1.2017,-9.3999 0.8011,-2.3733 1.9915,-4.2039 3.5713,-5.4917 1.5797,-1.2877 3.5675,-1.9316 5.9633,-1.9316 1.767,0 3.3168,0.3556 4.6494,1.0669 1.3327,0.7113 2.4333,1.737 3.3018,3.0771 0.8685,1.3402 1.5498,2.9724 2.044,4.8965 0.4941,1.9242 0.7412,4.5184 0.7412,7.7827 0,3.8633 -0.3969,6.98165 -1.1905,9.35502 -0.7936,2.37337 -1.9803,4.20769 -3.56,5.50293 -1.5798,1.2952497 -3.5751,1.942873 -5.9859,1.942873 -3.1744,0 -5.6676,-1.13802 -7.4795,-3.414063 -2.1712,-2.74023 -3.2568,-7.20246 -3.2568,-13.38676 m 4.1553,0 c 0,5.4056 0.6326,9.00313 1.8979,10.79252 1.2653,1.78939 2.8264,2.68408 4.6831,2.68408 1.8568,0 3.4178,-0.89843 4.6831,-2.69531 1.2653,-1.79687 1.898,-5.39059 1.898,-10.78129 0,-5.4205 -0.6327,-9.0218 -1.898,-10.8037 -1.2653,-1.7819 -2.8413,-2.6728 -4.728,-2.6728 -1.8568,0 -3.3392,0.7861 -4.4473,2.3584 -1.3925,2.0065 -2.0888,5.7125 -2.0888,11.1181 m 21.4228,0 c 0,-3.8932 0.4006,-7.0265 1.2017,-9.3999 0.8011,-2.3733 1.9915,-4.2039 3.5713,-5.4917 1.5797,-1.2877 3.5675,-1.9316 5.9634,-1.9316 1.7669,0 3.3167,0.3556 4.6494,1.0669 1.3327,0.7113 2.4332,1.737 3.3017,3.0771 0.8685,1.3402 1.5498,2.9724 2.044,4.8965 0.4941,1.9242 0.7412,4.5184 0.7412,7.7827 0,3.8633 -0.3968,6.98165 -1.1904,9.35502 -0.7937,2.37337 -1.9804,4.20769 -3.5601,5.50293 -1.5798,1.2952497 -3.575,1.942873 -5.9858,1.942873 -3.1745,0 -5.6677,-1.13802 -7.4795,-3.414063 C 54.151,-5.59277 53.0654,-10.055 53.0654,-16.2393 m 4.1553,0 c 0,5.4056 0.6327,9.00313 1.898,10.79252 1.2652,1.78939 2.8263,2.68408 4.6831,2.68408 1.8567,0 3.4178,-0.89843 4.6831,-2.69531 1.2653,-1.79687 1.8979,-5.39059 1.8979,-10.78129 0,-5.4205 -0.6326,-9.0218 -1.8979,-10.8037 -1.2653,-1.7819 -2.8413,-2.6728 -4.7281,-2.6728 -1.8567,0 -3.3392,0.7861 -4.4472,2.3584 -1.3926,2.0065 -2.0889,5.7125 -2.0889,11.1181 M 90.96,-9.88281 v -4.06539 h 12.421 v 4.06539 H 90.96 M 134.716,0 h -4.043 v -25.7627 c -0.973,0.9284 -2.25,1.8568 -3.83,2.7852 -1.579,0.9283 -2.998,1.6246 -4.256,2.0888 v -3.9082 c 2.261,-1.0631 4.238,-2.3509 5.93,-3.8633 1.692,-1.5123 2.89,-2.9798 3.593,-4.4023 h 2.606 V 0 m 10.349,-16.2393 c 0,-3.8932 0.401,-7.0265 1.202,-9.3999 0.801,-2.3733 1.992,-4.2039 3.571,-5.4917 1.58,-1.2877 3.568,-1.9316 5.964,-1.9316 1.767,0 3.316,0.3556 4.649,1.0669 1.333,0.7113 2.433,1.737 3.302,3.0771 0.868,1.3402 1.55,2.9724 2.044,4.8965 0.494,1.9242 0.741,4.5184 0.741,7.7827 0,3.8633 -0.397,6.98165 -1.19,9.35502 -0.794,2.37337 -1.981,4.20769 -3.56,5.50293 -1.58,1.2952497 -3.575,1.942873 -5.986,1.942873 -3.175,0 -5.668,-1.13802 -7.48,-3.414063 -2.171,-2.74023 -3.257,-7.20246 -3.257,-13.38676 m 4.156,0 c 0,5.4056 0.632,9.00313 1.898,10.79252 1.265,1.78939 2.826,2.68408 4.683,2.68408 1.857,0 3.418,-0.89843 4.683,-2.69531 1.265,-1.79687 1.898,-5.39059 1.898,-10.78129 0,-5.4205 -0.633,-9.0218 -1.898,-10.8037 -1.265,-1.7819 -2.841,-2.6728 -4.728,-2.6728 -1.857,0 -3.339,0.7861 -4.447,2.3584 -1.393,2.0065 -2.089,5.7125 -2.089,11.1181 m 21.423,0 c 0,-3.8932 0.4,-7.0265 1.201,-9.3999 0.801,-2.3733 1.992,-4.2039 3.572,-5.4917 1.579,-1.2877 3.567,-1.9316 5.963,-1.9316 1.767,0 3.317,0.3556 4.649,1.0669 1.333,0.7113 2.434,1.737 3.302,3.0771 0.869,1.3402 1.55,2.9724 2.044,4.8965 0.494,1.9242 0.741,4.5184 0.741,7.7827 0,3.8633 -0.397,6.98165 -1.19,9.35502 -0.794,2.37337 -1.981,4.20769 -3.56,5.50293 -1.58,1.2952497 -3.575,1.942873 -5.986,1.942873 -3.175,0 -5.668,-1.13802 -7.48,-3.414063 -2.171,-2.74023 -3.256,-7.20246 -3.256,-13.38676 m 4.155,0 c 0,5.4056 0.632,9.00313 1.898,10.79252 1.265,1.78939 2.826,2.68408 4.683,2.68408 1.857,0 3.418,-0.89843 4.683,-2.69531 1.265,-1.79687 1.898,-5.39059 1.898,-10.78129 0,-5.4205 -0.633,-9.0218 -1.898,-10.8037 -1.265,-1.7819 -2.841,-2.6728 -4.728,-2.6728 -1.857,0 -3.339,0.7861 -4.447,2.3584 -1.393,2.0065 -2.089,5.7125 -2.089,11.1181 m 21.423,0 c 0,-3.8932 0.4,-7.0265 1.201,-9.3999 0.801,-2.3733 1.992,-4.2039 3.572,-5.4917 1.579,-1.2877 3.567,-1.9316 5.963,-1.9316 1.767,0 3.317,0.3556 4.649,1.0669 1.333,0.7113 2.434,1.737 3.302,3.0771 0.869,1.3402 1.55,2.9724 2.044,4.8965 0.494,1.9242 0.741,4.5184 0.741,7.7827 0,3.8633 -0.396,6.98165 -1.19,9.35502 -0.794,2.37337 -1.98,4.20769 -3.56,5.50293 -1.58,1.2952497 -3.575,1.942873 -5.986,1.942873 -3.174,0 -5.668,-1.13802 -7.479,-3.414063 -2.172,-2.74023 -3.257,-7.20246 -3.257,-13.38676 m 4.155,0 c 0,5.4056 0.633,9.00313 1.898,10.79252 1.265,1.78939 2.826,2.68408 4.683,2.68408 1.857,0 3.418,-0.89843 4.683,-2.69531 1.265,-1.79687 1.898,-5.39059 1.898,-10.78129 0,-5.4205 -0.633,-9.0218 -1.898,-10.8037 -1.265,-1.7819 -2.841,-2.6728 -4.728,-2.6728 -1.857,0 -3.339,0.7861 -4.447,2.3584 -1.393,2.0065 -2.089,5.7125 -2.089,11.1181"
         fill-rule="nonzero"
         id="path33" />
    </g>
    <g
       stroke-width="1"
       stroke-linejoin="miter"
       transform="scale(0.999262)"
       font-weight="400"
       font-style="normal"
       fill="#8ef556"
       stroke="#000000"
       fill-opacity="1"
       stroke-opacity="1"
       font-size="54.1667px"
       stroke-linecap="square"
       stroke-miterlimit="2"
       font-family="'MS Shell Dlg 2'"
       id="g35" />
    <g
       stroke-width="1"
       stroke-linejoin="miter"
       transform="scale(11.8023)"
       font-weight="400"
       font-style="normal"
       fill="#eabd30"
       stroke="#000000"
       fill-opacity="1"
       stroke-opacity="1"
       font-size="54.1667px"
       stroke-linecap="square"
       stroke-miterlimit="2"
       font-family="'MS Shell Dlg 2'"
       id="g36">
      <rect
         vector-effect="non-scaling-stroke"
         height="4"
         width="10"
         x="2"
         y="38.5256"
         id="rect35" />
    </g>
    <g
       stroke-width="1"
       stroke-linejoin="miter"
       transform="scale(0.999262)"
       font-weight="400"
       font-style="normal"
       fill="#eabd30"
       stroke="#000000"
       fill-opacity="1"
       stroke-opacity="1"
       font-size="54.1667px"
       stroke-linecap="square"
       stroke-miterlimit="2"
       font-family="'MS Shell Dlg 2'"
       id="g37" />
    <g
       transform="matrix(0.999262,0,0,0.999262,165.232,494.572)"
       font-weight="400"
       font-style="normal"
       fill="#000000"
       stroke="none"
       fill-opacity="1"
       font-size="54.1667px"
       font-family="'MS Shell Dlg 2'"
       id="g38">
      <path
         vector-effect="none"
         d="m 17.1377,0 h -4.043 v -25.7627 c -0.9733,0.9284 -2.2498,1.8568 -3.82956,2.7852 -1.57976,0.9283 -2.99854,1.6246 -4.25635,2.0888 v -3.9082 c 2.26107,-1.0631 4.23763,-2.3509 5.92971,-3.8633 1.692,-1.5123 2.8899,-2.9798 3.5937,-4.4023 h 2.6055 V 0 m 10.3496,-16.2393 c 0,-3.8932 0.4006,-7.0265 1.2017,-9.3999 0.8011,-2.3733 1.9915,-4.2039 3.5713,-5.4917 1.5797,-1.2877 3.5675,-1.9316 5.9633,-1.9316 1.767,0 3.3168,0.3556 4.6494,1.0669 1.3327,0.7113 2.4333,1.737 3.3018,3.0771 0.8685,1.3402 1.5498,2.9724 2.044,4.8965 0.4941,1.9242 0.7412,4.5184 0.7412,7.7827 0,3.8633 -0.3969,6.98165 -1.1905,9.35502 -0.7936,2.37337 -1.9803,4.20769 -3.56,5.50293 -1.5798,1.2952497 -3.5751,1.942873 -5.9859,1.942873 -3.1744,0 -5.6676,-1.13802 -7.4795,-3.414063 -2.1712,-2.74023 -3.2568,-7.20246 -3.2568,-13.38676 m 4.1553,0 c 0,5.4056 0.6326,9.00313 1.8979,10.79252 1.2653,1.78939 2.8264,2.68408 4.6831,2.68408 1.8568,0 3.4178,-0.89843 4.6831,-2.69531 1.2653,-1.79687 1.898,-5.39059 1.898,-10.78129 0,-5.4205 -0.6327,-9.0218 -1.898,-10.8037 -1.2653,-1.7819 -2.8413,-2.6728 -4.728,-2.6728 -1.8568,0 -3.3392,0.7861 -4.4473,2.3584 -1.3925,2.0065 -2.0888,5.7125 -2.0888,11.1181 m 21.4228,0 c 0,-3.8932 0.4006,-7.0265 1.2017,-9.3999 0.8011,-2.3733 1.9915,-4.2039 3.5713,-5.4917 1.5797,-1.2877 3.5675,-1.9316 5.9634,-1.9316 1.7669,0 3.3167,0.3556 4.6494,1.0669 1.3327,0.7113 2.4332,1.737 3.3017,3.0771 0.8685,1.3402 1.5498,2.9724 2.044,4.8965 0.4941,1.9242 0.7412,4.5184 0.7412,7.7827 0,3.8633 -0.3968,6.98165 -1.1904,9.35502 -0.7937,2.37337 -1.9804,4.20769 -3.5601,5.50293 -1.5798,1.2952497 -3.575,1.942873 -5.9858,1.942873 -3.1745,0 -5.6677,-1.13802 -7.4795,-3.414063 C 54.151,-5.59277 53.0654,-10.055 53.0654,-16.2393 m 4.1553,0 c 0,5.4056 0.6327,9.00313 1.898,10.79252 1.2652,1.78939 2.8263,2.68408 4.6831,2.68408 1.8567,0 3.4178,-0.89843 4.6831,-2.69531 1.2653,-1.79687 1.8979,-5.39059 1.8979,-10.78129 0,-5.4205 -0.6326,-9.0218 -1.8979,-10.8037 -1.2653,-1.7819 -2.8413,-2.6728 -4.7281,-2.6728 -1.8567,0 -3.3392,0.7861 -4.4472,2.3584 -1.3926,2.0065 -2.0889,5.7125 -2.0889,11.1181 m 21.4229,0 c 0,-3.8932 0.4005,-7.0265 1.2016,-9.3999 0.8011,-2.3733 1.9915,-4.2039 3.5713,-5.4917 1.5798,-1.2877 3.5675,-1.9316 5.9634,-1.9316 1.7669,0 3.3167,0.3556 4.6494,1.0669 1.3327,0.7113 2.4333,1.737 3.3018,3.0771 0.8684,1.3402 1.5498,2.9724 2.0439,4.8965 0.4941,1.9242 0.741,4.5184 0.741,7.7827 0,3.8633 -0.3966,6.98165 -1.1902,9.35502 -0.7936,2.37337 -1.9803,4.20769 -3.5601,5.50293 -1.5797,1.2952497 -3.575,1.942873 -5.9858,1.942873 -3.1745,0 -5.6677,-1.13802 -7.4795,-3.414063 -2.1712,-2.74023 -3.2568,-7.20246 -3.2568,-13.38676 m 4.1552,0 c 0,5.4056 0.6327,9.00313 1.898,10.79252 1.2653,1.78939 2.8263,2.68408 4.6831,2.68408 1.8567,0 3.4178,-0.89843 4.6831,-2.69531 1.2653,-1.79687 1.8979,-5.39059 1.8979,-10.78129 0,-5.4205 -0.6326,-9.0218 -1.8979,-10.8037 -1.2653,-1.7819 -2.8413,-2.6728 -4.728,-2.6728 -1.8568,0 -3.3392,0.7861 -4.4473,2.3584 -1.3926,2.0065 -2.0889,5.7125 -2.0889,11.1181 m 33.7392,6.35649 v -4.06539 h 12.421 v 4.06539 H 116.538 M 160.294,0 h -4.043 v -25.7627 c -0.973,0.9284 -2.25,1.8568 -3.83,2.7852 -1.579,0.9283 -2.998,1.6246 -4.256,2.0888 v -3.9082 c 2.261,-1.0631 4.238,-2.3509 5.93,-3.8633 1.692,-1.5123 2.89,-2.9798 3.593,-4.4023 h 2.606 V 0 m 31.598,-3.88574 V 0 h -21.765 c -0.03,-0.973307 0.127,-1.90918 0.472,-2.80762 0.554,-1.48242 1.441,-2.94238 2.661,-4.37988 1.221,-1.4375 2.984,-3.0996 5.29,-4.9863 3.579,-2.9349 5.997,-5.2596 7.255,-6.9741 1.258,-1.7146 1.886,-3.3355 1.886,-4.8628 0,-1.6023 -0.572,-2.9537 -1.718,-4.0542 -1.145,-1.1006 -2.639,-1.6509 -4.481,-1.6509 -1.946,0 -3.504,0.584 -4.672,1.7519 -1.168,1.168 -1.759,2.7852 -1.774,4.8516 l -4.155,-0.4268 c 0.284,-3.0996 1.355,-5.4617 3.212,-7.0864 1.856,-1.6247 4.349,-2.437 7.479,-2.437 3.16,0 5.66,0.876 7.502,2.6279 1.842,1.752 2.763,3.9232 2.763,6.5137 0,1.3177 -0.27,2.613 -0.809,3.8857 -0.539,1.2728 -1.434,2.613 -2.684,4.0206 -1.25,1.4075 -3.328,3.3391 -6.233,5.7949 -2.426,2.03643 -3.983,3.41778 -4.672,4.14402 -0.689,0.72623 -1.258,1.45621 -1.707,2.18994 h 16.15 m 4.33,-12.35356 c 0,-3.8932 0.4,-7.0265 1.201,-9.3999 0.801,-2.3733 1.992,-4.2039 3.572,-5.4917 1.579,-1.2877 3.567,-1.9316 5.963,-1.9316 1.767,0 3.317,0.3556 4.649,1.0669 1.333,0.7113 2.434,1.737 3.302,3.0771 0.869,1.3402 1.55,2.9724 2.044,4.8965 0.494,1.9242 0.741,4.5184 0.741,7.7827 0,3.8633 -0.396,6.98165 -1.19,9.35502 -0.794,2.37337 -1.98,4.20769 -3.56,5.50293 -1.58,1.2952497 -3.575,1.942873 -5.986,1.942873 -3.174,0 -5.668,-1.13802 -7.479,-3.414063 -2.172,-2.74023 -3.257,-7.20246 -3.257,-13.38676 m 4.155,0 c 0,5.4056 0.633,9.00313 1.898,10.79252 1.265,1.78939 2.826,2.68408 4.683,2.68408 1.857,0 3.418,-0.89843 4.683,-2.69531 1.265,-1.79687 1.898,-5.39059 1.898,-10.78129 0,-5.4205 -0.633,-9.0218 -1.898,-10.8037 -1.265,-1.7819 -2.841,-2.6728 -4.728,-2.6728 -1.857,0 -3.339,0.7861 -4.447,2.3584 -1.393,2.0065 -2.089,5.7125 -2.089,11.1181 m 21.423,0 c 0,-3.8932 0.4,-7.0265 1.201,-9.3999 0.802,-2.3733 1.992,-4.2039 3.572,-5.4917 1.579,-1.2877 3.567,-1.9316 5.963,-1.9316 1.767,0 3.317,0.3556 4.65,1.0669 1.332,0.7113 2.433,1.737 3.301,3.0771 0.869,1.3402 1.55,2.9724 2.044,4.8965 0.494,1.9242 0.741,4.5184 0.741,7.7827 0,3.8633 -0.396,6.98165 -1.19,9.35502 -0.794,2.37337 -1.98,4.20769 -3.56,5.50293 -1.58,1.2952497 -3.575,1.942873 -5.986,1.942873 -3.174,0 -5.668,-1.13802 -7.479,-3.414063 C 222.885,-5.59277 221.8,-10.055 221.8,-16.2393 m 4.155,0 c 0,5.4056 0.633,9.00313 1.898,10.79252 1.265,1.78939 2.826,2.68408 4.683,2.68408 1.857,0 3.418,-0.89843 4.683,-2.69531 1.266,-1.79687 1.898,-5.39059 1.898,-10.78129 0,-5.4205 -0.632,-9.0218 -1.898,-10.8037 -1.265,-1.7819 -2.841,-2.6728 -4.728,-2.6728 -1.857,0 -3.339,0.7861 -4.447,2.3584 -1.393,2.0065 -2.089,5.7125 -2.089,11.1181"
         fill-rule="nonzero"
         id="path37" />
    </g>
    <g
       stroke-width="1"
       stroke-linejoin="miter"
       transform="scale(0.999262)"
       font-weight="400"
       font-style="normal"
       fill="#eabd30"
       stroke="#000000"
       fill-opacity="1"
       stroke-opacity="1"
       font-size="54.1667px"
       stroke-linecap="square"
       stroke-miterlimit="2"
       font-family="'MS Shell Dlg 2'"
       id="g39" />
    <g
       stroke-width="1"
       stroke-linejoin="miter"
       transform="scale(11.8023)"
       font-weight="400"
       font-style="normal"
       fill="#e45512"
       stroke="#000000"
       fill-opacity="1"
       stroke-opacity="1"
       font-size="54.1667px"
       stroke-linecap="square"
       stroke-miterlimit="2"
       font-family="'MS Shell Dlg 2'"
       id="g40">
      <rect
         vector-effect="non-scaling-stroke"
         height="4"
         width="10"
         x="2"
         y="45.0256"
         id="rect39" />
    </g>
    <g
       stroke-width="1"
       stroke-linejoin="miter"
       transform="scale(0.999262)"
       font-weight="400"
       font-style="normal"
       fill="#e45512"
       stroke="#000000"
       fill-opacity="1"
       stroke-opacity="1"
       font-size="54.1667px"
       stroke-linecap="square"
       stroke-miterlimit="2"
       font-family="'MS Shell Dlg 2'"
       id="g41" />
    <g
       transform="matrix(0.999262,0,0,0.999262,165.232,571.516)"
       font-weight="400"
       font-style="normal"
       fill="#000000"
       stroke="none"
       fill-opacity="1"
       font-size="54.1667px"
       font-family="'MS Shell Dlg 2'"
       id="g42">
      <path
         vector-effect="none"
         d="m 17.1377,0 h -4.043 v -25.7627 c -0.9733,0.9284 -2.2498,1.8568 -3.82956,2.7852 -1.57976,0.9283 -2.99854,1.6246 -4.25635,2.0888 v -3.9082 c 2.26107,-1.0631 4.23763,-2.3509 5.92971,-3.8633 1.692,-1.5123 2.8899,-2.9798 3.5937,-4.4023 h 2.6055 V 0 M 48.7354,-3.88574 V 0 H 26.9707 c -0.0299,-0.973307 0.1273,-1.90918 0.4717,-2.80762 0.554,-1.48242 1.4412,-2.94238 2.6616,-4.37988 1.2204,-1.4375 2.9836,-3.0996 5.2896,-4.9863 3.5787,-2.9349 5.997,-5.2596 7.2548,-6.9741 1.2579,-1.7146 1.8868,-3.3355 1.8868,-4.8628 0,-1.6023 -0.5728,-2.9537 -1.7183,-4.0542 -1.1455,-1.1006 -2.6392,-1.6509 -4.481,-1.6509 -1.9466,0 -3.5039,0.584 -4.6718,1.7519 -1.168,1.168 -1.7595,2.7852 -1.7745,4.8516 l -4.1552,-0.4268 c 0.2845,-3.0996 1.3551,-5.4617 3.2119,-7.0864 1.8568,-1.6247 4.3499,-2.437 7.4795,-2.437 3.1595,0 5.6601,0.876 7.5019,2.6279 1.8418,1.752 2.7627,3.9232 2.7627,6.5137 0,1.3177 -0.2695,2.613 -0.8086,3.8857 -0.539,1.2728 -1.4337,2.613 -2.684,4.0206 -1.2504,1.4075 -3.328,3.3391 -6.233,5.7949 -2.4257,2.03643 -3.983,3.41778 -4.6718,4.14402 -0.6888,0.72623 -1.2578,1.45621 -1.7071,2.18994 h 16.1495 m 4.33,-12.35356 c 0,-3.8932 0.4006,-7.0265 1.2017,-9.3999 0.8011,-2.3733 1.9915,-4.2039 3.5713,-5.4917 1.5797,-1.2877 3.5675,-1.9316 5.9634,-1.9316 1.7669,0 3.3167,0.3556 4.6494,1.0669 1.3327,0.7113 2.4332,1.737 3.3017,3.0771 0.8685,1.3402 1.5498,2.9724 2.044,4.8965 0.4941,1.9242 0.7412,4.5184 0.7412,7.7827 0,3.8633 -0.3968,6.98165 -1.1904,9.35502 -0.7937,2.37337 -1.9804,4.20769 -3.5601,5.50293 -1.5798,1.2952497 -3.575,1.942873 -5.9858,1.942873 -3.1745,0 -5.6677,-1.13802 -7.4795,-3.414063 C 54.151,-5.59277 53.0654,-10.055 53.0654,-16.2393 m 4.1553,0 c 0,5.4056 0.6327,9.00313 1.898,10.79252 1.2652,1.78939 2.8263,2.68408 4.6831,2.68408 1.8567,0 3.4178,-0.89843 4.6831,-2.69531 1.2653,-1.79687 1.8979,-5.39059 1.8979,-10.78129 0,-5.4205 -0.6326,-9.0218 -1.8979,-10.8037 -1.2653,-1.7819 -2.8413,-2.6728 -4.7281,-2.6728 -1.8567,0 -3.3392,0.7861 -4.4472,2.3584 -1.3926,2.0065 -2.0889,5.7125 -2.0889,11.1181 m 21.4229,0 c 0,-3.8932 0.4005,-7.0265 1.2016,-9.3999 0.8011,-2.3733 1.9915,-4.2039 3.5713,-5.4917 1.5798,-1.2877 3.5675,-1.9316 5.9634,-1.9316 1.7669,0 3.3167,0.3556 4.6494,1.0669 1.3327,0.7113 2.4333,1.737 3.3018,3.0771 0.8684,1.3402 1.5498,2.9724 2.0439,4.8965 0.4941,1.9242 0.741,4.5184 0.741,7.7827 0,3.8633 -0.3966,6.98165 -1.1902,9.35502 -0.7936,2.37337 -1.9803,4.20769 -3.5601,5.50293 -1.5797,1.2952497 -3.575,1.942873 -5.9858,1.942873 -3.1745,0 -5.6677,-1.13802 -7.4795,-3.414063 -2.1712,-2.74023 -3.2568,-7.20246 -3.2568,-13.38676 m 4.1552,0 c 0,5.4056 0.6327,9.00313 1.898,10.79252 1.2653,1.78939 2.8263,2.68408 4.6831,2.68408 1.8567,0 3.4178,-0.89843 4.6831,-2.69531 1.2653,-1.79687 1.8979,-5.39059 1.8979,-10.78129 0,-5.4205 -0.6326,-9.0218 -1.8979,-10.8037 -1.2653,-1.7819 -2.8413,-2.6728 -4.728,-2.6728 -1.8568,0 -3.3392,0.7861 -4.4473,2.3584 -1.3926,2.0065 -2.0889,5.7125 -2.0889,11.1181 m 33.7392,6.35649 v -4.06539 h 12.421 v 4.06539 H 116.538 M 160.294,0 h -4.043 v -25.7627 c -0.973,0.9284 -2.25,1.8568 -3.83,2.7852 -1.579,0.9283 -2.998,1.6246 -4.256,2.0888 v -3.9082 c 2.261,-1.0631 4.238,-2.3509 5.93,-3.8633 1.692,-1.5123 2.89,-2.9798 3.593,-4.4023 h 2.606 V 0 m 23.31,0 v -7.88379 h -14.286 v -3.70601 l 15.027,-21.3379 h 3.301 v 21.3379 h 4.448 v 3.70601 h -4.448 V 0 h -4.042 m 0,-11.5898 v -14.8467 l -10.31,14.8467 h 10.31 m 12.618,-4.6495 c 0,-3.8932 0.4,-7.0265 1.201,-9.3999 0.801,-2.3733 1.992,-4.2039 3.572,-5.4917 1.579,-1.2877 3.567,-1.9316 5.963,-1.9316 1.767,0 3.317,0.3556 4.649,1.0669 1.333,0.7113 2.434,1.737 3.302,3.0771 0.869,1.3402 1.55,2.9724 2.044,4.8965 0.494,1.9242 0.741,4.5184 0.741,7.7827 0,3.8633 -0.396,6.98165 -1.19,9.35502 -0.794,2.37337 -1.98,4.20769 -3.56,5.50293 -1.58,1.2952497 -3.575,1.942873 -5.986,1.942873 -3.174,0 -5.668,-1.13802 -7.479,-3.414063 -2.172,-2.74023 -3.257,-7.20246 -3.257,-13.38676 m 4.155,0 c 0,5.4056 0.633,9.00313 1.898,10.79252 1.265,1.78939 2.826,2.68408 4.683,2.68408 1.857,0 3.418,-0.89843 4.683,-2.69531 1.265,-1.79687 1.898,-5.39059 1.898,-10.78129 0,-5.4205 -0.633,-9.0218 -1.898,-10.8037 -1.265,-1.7819 -2.841,-2.6728 -4.728,-2.6728 -1.857,0 -3.339,0.7861 -4.447,2.3584 -1.393,2.0065 -2.089,5.7125 -2.089,11.1181 m 21.423,0 c 0,-3.8932 0.4,-7.0265 1.201,-9.3999 0.802,-2.3733 1.992,-4.2039 3.572,-5.4917 1.579,-1.2877 3.567,-1.9316 5.963,-1.9316 1.767,0 3.317,0.3556 4.65,1.0669 1.332,0.7113 2.433,1.737 3.301,3.0771 0.869,1.3402 1.55,2.9724 2.044,4.8965 0.494,1.9242 0.741,4.5184 0.741,7.7827 0,3.8633 -0.396,6.98165 -1.19,9.35502 -0.794,2.37337 -1.98,4.20769 -3.56,5.50293 -1.58,1.2952497 -3.575,1.942873 -5.986,1.942873 -3.174,0 -5.668,-1.13802 -7.479,-3.414063 C 222.885,-5.59277 221.8,-10.055 221.8,-16.2393 m 4.155,0 c 0,5.4056 0.633,9.00313 1.898,10.79252 1.265,1.78939 2.826,2.68408 4.683,2.68408 1.857,0 3.418,-0.89843 4.683,-2.69531 1.266,-1.79687 1.898,-5.39059 1.898,-10.78129 0,-5.4205 -0.632,-9.0218 -1.898,-10.8037 -1.265,-1.7819 -2.841,-2.6728 -4.728,-2.6728 -1.857,0 -3.339,0.7861 -4.447,2.3584 -1.393,2.0065 -2.089,5.7125 -2.089,11.1181"
         fill-rule="nonzero"
         id="path41" />
    </g>
    <g
       stroke-width="1"
       stroke-linejoin="miter"
       transform="scale(0.999262)"
       font-weight="400"
       font-style="normal"
       fill="#e45512"
       stroke="#000000"
       fill-opacity="1"
       stroke-opacity="1"
       font-size="54.1667px"
       stroke-linecap="square"
       stroke-miterlimit="2"
       font-family="'MS Shell Dlg 2'"
       id="g43" />
    <g
       stroke-width="1"
       stroke-linejoin="miter"
       transform="scale(11.8023)"
       font-weight="400"
       font-style="normal"
       fill="#b02205"
       stroke="#000000"
       fill-opacity="1"
       stroke-opacity="1"
       font-size="54.1667px"
       stroke-linecap="square"
       stroke-miterlimit="2"
       font-family="'MS Shell Dlg 2'"
       id="g44">
      <rect
         vector-effect="non-scaling-stroke"
         height="4"
         width="10"
         x="2"
         y="51.5256"
         id="rect43" />
    </g>
    <g
       stroke-width="1"
       stroke-linejoin="miter"
       transform="scale(0.999262)"
       font-weight="400"
       font-style="normal"
       fill="#b02205"
       stroke="#000000"
       fill-opacity="1"
       stroke-opacity="1"
       font-size="54.1667px"
       stroke-linecap="square"
       stroke-miterlimit="2"
       font-family="'MS Shell Dlg 2'"
       id="g45" />
    <g
       transform="matrix(0.999262,0,0,0.999262,165.232,648.459)"
       font-weight="400"
       font-style="normal"
       fill="#000000"
       stroke="none"
       fill-opacity="1"
       font-size="54.1667px"
       font-family="'MS Shell Dlg 2'"
       id="g46">
      <path
         vector-effect="none"
         d="m 17.1377,0 h -4.043 v -25.7627 c -0.9733,0.9284 -2.2498,1.8568 -3.82956,2.7852 -1.57976,0.9283 -2.99854,1.6246 -4.25635,2.0888 v -3.9082 c 2.26107,-1.0631 4.23763,-2.3509 5.92971,-3.8633 1.692,-1.5123 2.8899,-2.9798 3.5937,-4.4023 h 2.6055 V 0 M 40.4473,0 V -7.88379 H 26.1621 v -3.70601 l 15.0264,-21.3379 h 3.3017 v 21.3379 h 4.4473 v 3.70601 H 44.4902 V 0 h -4.0429 m 0,-11.5898 v -14.8467 l -10.3096,14.8467 h 10.3096 m 12.6181,-4.6495 c 0,-3.8932 0.4006,-7.0265 1.2017,-9.3999 0.8011,-2.3733 1.9915,-4.2039 3.5713,-5.4917 1.5797,-1.2877 3.5675,-1.9316 5.9634,-1.9316 1.7669,0 3.3167,0.3556 4.6494,1.0669 1.3327,0.7113 2.4332,1.737 3.3017,3.0771 0.8685,1.3402 1.5498,2.9724 2.044,4.8965 0.4941,1.9242 0.7412,4.5184 0.7412,7.7827 0,3.8633 -0.3968,6.98165 -1.1904,9.35502 -0.7937,2.37337 -1.9804,4.20769 -3.5601,5.50293 -1.5798,1.2952497 -3.575,1.942873 -5.9858,1.942873 -3.1745,0 -5.6677,-1.13802 -7.4795,-3.414063 C 54.151,-5.59277 53.0654,-10.055 53.0654,-16.2393 m 4.1553,0 c 0,5.4056 0.6327,9.00313 1.898,10.79252 1.2652,1.78939 2.8263,2.68408 4.6831,2.68408 1.8567,0 3.4178,-0.89843 4.6831,-2.69531 1.2653,-1.79687 1.8979,-5.39059 1.8979,-10.78129 0,-5.4205 -0.6326,-9.0218 -1.8979,-10.8037 -1.2653,-1.7819 -2.8413,-2.6728 -4.7281,-2.6728 -1.8567,0 -3.3392,0.7861 -4.4472,2.3584 -1.3926,2.0065 -2.0889,5.7125 -2.0889,11.1181 m 21.4229,0 c 0,-3.8932 0.4005,-7.0265 1.2016,-9.3999 0.8011,-2.3733 1.9915,-4.2039 3.5713,-5.4917 1.5798,-1.2877 3.5675,-1.9316 5.9634,-1.9316 1.7669,0 3.3167,0.3556 4.6494,1.0669 1.3327,0.7113 2.4333,1.737 3.3018,3.0771 0.8684,1.3402 1.5498,2.9724 2.0439,4.8965 0.4941,1.9242 0.741,4.5184 0.741,7.7827 0,3.8633 -0.3966,6.98165 -1.1902,9.35502 -0.7936,2.37337 -1.9803,4.20769 -3.5601,5.50293 -1.5797,1.2952497 -3.575,1.942873 -5.9858,1.942873 -3.1745,0 -5.6677,-1.13802 -7.4795,-3.414063 -2.1712,-2.74023 -3.2568,-7.20246 -3.2568,-13.38676 m 4.1552,0 c 0,5.4056 0.6327,9.00313 1.898,10.79252 1.2653,1.78939 2.8263,2.68408 4.6831,2.68408 1.8567,0 3.4178,-0.89843 4.6831,-2.69531 1.2653,-1.79687 1.8979,-5.39059 1.8979,-10.78129 0,-5.4205 -0.6326,-9.0218 -1.8979,-10.8037 -1.2653,-1.7819 -2.8413,-2.6728 -4.728,-2.6728 -1.8568,0 -3.3392,0.7861 -4.4473,2.3584 -1.3926,2.0065 -2.0889,5.7125 -2.0889,11.1181 m 33.7392,6.35649 v -4.06539 h 12.421 v 4.06539 H 116.538 M 160.294,0 h -4.043 v -25.7627 c -0.973,0.9284 -2.25,1.8568 -3.83,2.7852 -1.579,0.9283 -2.998,1.6246 -4.256,2.0888 v -3.9082 c 2.261,-1.0631 4.238,-2.3509 5.93,-3.8633 1.692,-1.5123 2.89,-2.9798 3.593,-4.4023 h 2.606 V 0 m 31.328,-24.8643 -4.02,0.3145 c -0.36,-1.5872 -0.869,-2.7402 -1.528,-3.459 -1.093,-1.153 -2.441,-1.7295 -4.043,-1.7295 -1.288,0 -2.418,0.3594 -3.391,1.0781 -1.273,0.9284 -2.276,2.2836 -3.01,4.0655 -0.734,1.7819 -1.116,4.32 -1.146,7.6142 0.974,-1.4824 2.164,-2.583 3.572,-3.3017 1.407,-0.7188 2.882,-1.0782 4.424,-1.0782 2.696,0 4.991,0.9921 6.885,2.9761 1.894,1.9841 2.841,4.5484 2.841,7.6929 0,2.0664 -0.445,3.98681 -1.336,5.76122 -0.891,1.77442 -2.115,3.1333 -3.673,4.076664 -1.557,0.9433597 -3.324,1.415039 -5.301,1.415039 -3.369,0 -6.116,-1.239095 -8.243,-3.717283 -2.126,-2.47819 -3.189,-6.56234 -3.189,-12.25244 0,-6.3639 1.175,-10.9909 3.526,-13.8809 2.052,-2.5156 4.814,-3.7734 8.288,-3.7734 2.591,0 4.713,0.7262 6.368,2.1787 1.655,1.4525 2.647,3.459 2.976,6.0195 m -16.509,14.1954 c 0,1.39253 0.296,2.72522 0.887,3.998 0.592,1.27279 1.419,2.24235 2.482,2.90869 1.064,0.66634 2.179,0.99951 3.347,0.99951 1.707,0 3.175,-0.6888 4.402,-2.0664 1.228,-1.37761 1.842,-3.24935 1.842,-5.6152 0,-2.2761 -0.606,-4.0692 -1.819,-5.3794 -1.213,-1.3103 -2.74,-1.9654 -4.582,-1.9654 -1.827,0 -3.377,0.6551 -4.65,1.9654 -1.272,1.3102 -1.909,3.0285 -1.909,5.1548 m 21.109,-5.5704 c 0,-3.8932 0.4,-7.0265 1.201,-9.3999 0.801,-2.3733 1.992,-4.2039 3.572,-5.4917 1.579,-1.2877 3.567,-1.9316 5.963,-1.9316 1.767,0 3.317,0.3556 4.649,1.0669 1.333,0.7113 2.434,1.737 3.302,3.0771 0.869,1.3402 1.55,2.9724 2.044,4.8965 0.494,1.9242 0.741,4.5184 0.741,7.7827 0,3.8633 -0.396,6.98165 -1.19,9.35502 -0.794,2.37337 -1.98,4.20769 -3.56,5.50293 -1.58,1.2952497 -3.575,1.942873 -5.986,1.942873 -3.174,0 -5.668,-1.13802 -7.479,-3.414063 -2.172,-2.74023 -3.257,-7.20246 -3.257,-13.38676 m 4.155,0 c 0,5.4056 0.633,9.00313 1.898,10.79252 1.265,1.78939 2.826,2.68408 4.683,2.68408 1.857,0 3.418,-0.89843 4.683,-2.69531 1.265,-1.79687 1.898,-5.39059 1.898,-10.78129 0,-5.4205 -0.633,-9.0218 -1.898,-10.8037 -1.265,-1.7819 -2.841,-2.6728 -4.728,-2.6728 -1.857,0 -3.339,0.7861 -4.447,2.3584 -1.393,2.0065 -2.089,5.7125 -2.089,11.1181 m 21.423,0 c 0,-3.8932 0.4,-7.0265 1.201,-9.3999 0.802,-2.3733 1.992,-4.2039 3.572,-5.4917 1.579,-1.2877 3.567,-1.9316 5.963,-1.9316 1.767,0 3.317,0.3556 4.65,1.0669 1.332,0.7113 2.433,1.737 3.301,3.0771 0.869,1.3402 1.55,2.9724 2.044,4.8965 0.494,1.9242 0.741,4.5184 0.741,7.7827 0,3.8633 -0.396,6.98165 -1.19,9.35502 -0.794,2.37337 -1.98,4.20769 -3.56,5.50293 -1.58,1.2952497 -3.575,1.942873 -5.986,1.942873 -3.174,0 -5.668,-1.13802 -7.479,-3.414063 C 222.885,-5.59277 221.8,-10.055 221.8,-16.2393 m 4.155,0 c 0,5.4056 0.633,9.00313 1.898,10.79252 1.265,1.78939 2.826,2.68408 4.683,2.68408 1.857,0 3.418,-0.89843 4.683,-2.69531 1.266,-1.79687 1.898,-5.39059 1.898,-10.78129 0,-5.4205 -0.632,-9.0218 -1.898,-10.8037 -1.265,-1.7819 -2.841,-2.6728 -4.728,-2.6728 -1.857,0 -3.339,0.7861 -4.447,2.3584 -1.393,2.0065 -2.089,5.7125 -2.089,11.1181"
         fill-rule="nonzero"
         id="path45" />
    </g>
    <g
       stroke-width="1"
       stroke-linejoin="miter"
       transform="scale(0.999262)"
       font-weight="400"
       font-style="normal"
       fill="#b02205"
       stroke="#000000"
       fill-opacity="1"
       stroke-opacity="1"
       font-size="54.1667px"
       stroke-linecap="square"
       stroke-miterlimit="2"
       font-family="'MS Shell Dlg 2'"
       id="g47" />
    <g
       stroke-width="1"
       stroke-linejoin="miter"
       transform="scale(11.8023)"
       font-weight="400"
       font-style="normal"
       fill="#7a0403"
       stroke="#000000"
       fill-opacity="1"
       stroke-opacity="1"
       font-size="54.1667px"
       stroke-linecap="square"
       stroke-miterlimit="2"
       font-family="'MS Shell Dlg 2'"
       id="g48">
      <rect
         vector-effect="non-scaling-stroke"
         height="4"
         width="10"
         x="2"
         y="58.0256"
         id="rect47" />
    </g>
    <g
       stroke-width="1"
       stroke-linejoin="miter"
       transform="scale(0.999262)"
       font-weight="400"
       font-style="normal"
       fill="#7a0403"
       stroke="#000000"
       fill-opacity="1"
       stroke-opacity="1"
       font-size="54.1667px"
       stroke-linecap="square"
       stroke-miterlimit="2"
       font-family="'MS Shell Dlg 2'"
       id="g49" />
    <g
       transform="matrix(0.999262,0,0,0.999262,165.232,724.403)"
       font-weight="400"
       font-style="normal"
       fill="#000000"
       stroke="none"
       fill-opacity="1"
       font-size="54.1667px"
       font-family="'MS Shell Dlg 2'"
       id="g50">
      <path
         vector-effect="none"
         d="M 24.3252,-14.3975 2.51563,-5.07617 V -9.09668 L 19.7881,-16.2617 2.51563,-23.3594 v -4.0205 l 21.80957,9.209 v 3.7734 M 56.7627,0 h -4.043 v -25.7627 c -0.9733,0.9284 -2.2498,1.8568 -3.8296,2.7852 -1.5797,0.9283 -2.9985,1.6246 -4.2563,2.0888 v -3.9082 c 2.2611,-1.0631 4.2376,-2.3509 5.9297,-3.8633 1.692,-1.5123 2.8899,-2.9798 3.5937,-4.4023 h 2.6055 V 0 m 31.3281,-24.8643 -4.0205,0.3145 c -0.3594,-1.5872 -0.8685,-2.7402 -1.5273,-3.459 -1.0931,-1.153 -2.4408,-1.7295 -4.043,-1.7295 -1.2878,0 -2.4183,0.3594 -3.3916,1.0781 -1.2728,0.9284 -2.276,2.2836 -3.0098,4.0655 -0.7337,1.7819 -1.1155,4.32 -1.1455,7.6142 0.9733,-1.4824 2.1638,-2.583 3.5713,-3.3017 1.4076,-0.7188 2.8825,-1.0782 4.4248,-1.0782 2.6953,0 4.9901,0.9921 6.8843,2.9761 1.8942,1.9841 2.8413,4.5484 2.8413,7.6929 0,2.0664 -0.4455,3.98681 -1.3364,5.76122 -0.891,1.77442 -2.1151,3.1333 -3.6724,4.076664 -1.5573,0.9433597 -3.3242,1.415039 -5.3008,1.415039 -3.3691,0 -6.1168,-1.239095 -8.2431,-3.717283 -2.1263,-2.47819 -3.1895,-6.56234 -3.1895,-12.25244 0,-6.3639 1.1755,-10.9909 3.5264,-13.8809 2.0514,-2.5156 4.8141,-3.7734 8.2881,-3.7734 2.5905,0 4.713,0.7262 6.3676,2.1787 1.6547,1.4525 2.6467,3.459 2.9761,6.0195 M 71.582,-10.6689 c 0,1.39253 0.2958,2.72522 0.8872,3.998 0.5915,1.27279 1.4188,2.24235 2.482,2.90869 1.0631,0.66634 2.1787,0.99951 3.3467,0.99951 1.707,0 3.1744,-0.6888 4.4023,-2.0664 1.2279,-1.37761 1.8418,-3.24935 1.8418,-5.6152 0,-2.2761 -0.6065,-4.0692 -1.8193,-5.3794 -1.2129,-1.3103 -2.7403,-1.9654 -4.5821,-1.9654 -1.8268,0 -3.3766,0.6551 -4.6494,1.9654 -1.2728,1.3102 -1.9092,3.0285 -1.9092,5.1548 m 21.1084,-5.5704 c 0,-3.8932 0.4006,-7.0265 1.2017,-9.3999 0.8011,-2.3733 1.9915,-4.2039 3.5713,-5.4917 1.5797,-1.2877 3.5676,-1.9316 5.9636,-1.9316 1.767,0 3.316,0.3556 4.649,1.0669 1.333,0.7113 2.433,1.737 3.302,3.0771 0.868,1.3402 1.55,2.9724 2.044,4.8965 0.494,1.9242 0.741,4.5184 0.741,7.7827 0,3.8633 -0.397,6.98165 -1.19,9.35502 -0.794,2.37337 -1.981,4.20769 -3.56,5.50293 -1.58,1.2952497 -3.575,1.942873 -5.986,1.942873 -3.175,0 -5.6679,-1.13802 -7.4797,-3.414063 C 93.776,-5.59277 92.6904,-10.055 92.6904,-16.2393 m 4.1553,0 c 0,5.4056 0.6326,9.00313 1.898,10.79252 1.2653,1.78939 2.8263,2.68408 4.6833,2.68408 1.857,0 3.418,-0.89843 4.683,-2.69531 1.265,-1.79687 1.898,-5.39059 1.898,-10.78129 0,-5.4205 -0.633,-9.0218 -1.898,-10.8037 -1.265,-1.7819 -2.841,-2.6728 -4.728,-2.6728 -1.857,0 -3.339,0.7861 -4.4474,2.3584 -1.3926,2.0065 -2.0889,5.7125 -2.0889,11.1181 m 21.4233,0 c 0,-3.8932 0.4,-7.0265 1.201,-9.3999 0.801,-2.3733 1.992,-4.2039 3.572,-5.4917 1.579,-1.2877 3.567,-1.9316 5.963,-1.9316 1.767,0 3.317,0.3556 4.649,1.0669 1.333,0.7113 2.434,1.737 3.302,3.0771 0.869,1.3402 1.55,2.9724 2.044,4.8965 0.494,1.9242 0.741,4.5184 0.741,7.7827 0,3.8633 -0.397,6.98165 -1.19,9.35502 -0.794,2.37337 -1.981,4.20769 -3.56,5.50293 -1.58,1.2952497 -3.575,1.942873 -5.986,1.942873 -3.175,0 -5.668,-1.13802 -7.48,-3.414063 -2.171,-2.74023 -3.256,-7.20246 -3.256,-13.38676 m 4.155,0 c 0,5.4056 0.632,9.00313 1.898,10.79252 1.265,1.78939 2.826,2.68408 4.683,2.68408 1.857,0 3.418,-0.89843 4.683,-2.69531 1.265,-1.79687 1.898,-5.39059 1.898,-10.78129 0,-5.4205 -0.633,-9.0218 -1.898,-10.8037 -1.265,-1.7819 -2.841,-2.6728 -4.728,-2.6728 -1.857,0 -3.339,0.7861 -4.447,2.3584 -1.393,2.0065 -2.089,5.7125 -2.089,11.1181"
         fill-rule="nonzero"
         id="path49" />
    </g>
    <g
       stroke-width="1"
       stroke-linejoin="miter"
       transform="scale(0.999262)"
       font-weight="400"
       font-style="normal"
       fill="#7a0403"
       stroke="#000000"
       fill-opacity="1"
       stroke-opacity="1"
       font-size="54.1667px"
       stroke-linecap="square"
       stroke-miterlimit="2"
       font-family="'MS Shell Dlg 2'"
       id="g51" />
    <g
       stroke-width="1"
       stroke-linejoin="bevel"
       transform="scale(0.999262)"
       font-weight="400"
       font-style="normal"
       fill="none"
       stroke="#000000"
       stroke-opacity="1"
       font-size="54.1667px"
       stroke-linecap="square"
       font-family="'MS Shell Dlg 2'"
       id="g52" />
    <g
       stroke-width="1"
       stroke-linejoin="bevel"
       transform="scale(11.8023)"
       font-weight="400"
       font-style="normal"
       fill="none"
       stroke="#000000"
       stroke-opacity="1"
       font-size="54.1667px"
       stroke-linecap="square"
       font-family="'MS Shell Dlg 2'"
       id="g53" />
    <g
       stroke-width="1"
       stroke-linejoin="bevel"
       transform="scale(11.8023)"
       font-weight="400"
       font-style="normal"
       fill="none"
       stroke="#000000"
       stroke-opacity="1"
       font-size="54.1667px"
       stroke-linecap="square"
       font-family="'MS Shell Dlg 2'"
       id="g54" />
    <g
       stroke-width="1"
       stroke-linejoin="bevel"
       transform="scale(11.8023)"
       font-weight="400"
       font-style="normal"
       fill="none"
       stroke="#000000"
       stroke-opacity="1"
       font-size="54.1667px"
       stroke-linecap="square"
       font-family="'MS Shell Dlg 2'"
       id="g55" />
    <g
       stroke-width="1"
       stroke-linejoin="bevel"
       transform="scale(11.8023)"
       font-weight="400"
       font-style="normal"
       fill="none"
       stroke="#000000"
       stroke-opacity="1"
       font-size="54.1667px"
       stroke-linecap="square"
       font-family="'MS Shell Dlg 2'"
       id="g56" />
    <g
       stroke-width="1"
       stroke-linejoin="bevel"
       transform="scale(11.8023)"
       font-weight="400"
       font-style="normal"
       fill="none"
       stroke="#000000"
       stroke-opacity="1"
       font-size="54.1667px"
       stroke-linecap="square"
       font-family="'MS Shell Dlg 2'"
       id="g57" />
    <g
       stroke-width="1"
       stroke-linejoin="bevel"
       font-weight="400"
       font-style="normal"
       fill="none"
       stroke="#000000"
       stroke-opacity="1"
       font-size="54.1667px"
       stroke-linecap="square"
       font-family="'MS Shell Dlg 2'"
       id="g58" />
  </g>
  <metadata
     id="metadata59">
    <rdf:RDF>
      <rdf:Description
         dc:description=""
         dc:title=""
         dc:date="2025-01-24T12:15:38"
         dc:format="image/svg+xml"
         dc:identifier="">
        <dc:creator>
          <rdf:Bag>
            <rdf:li>Mason Wachter</rdf:li>
          </rdf:Bag>
        </dc:creator>
        <dc:publisher>
          <rdf:Bag>
            <rdf:li>QGIS 3.40.2-Bratislava</rdf:li>
          </rdf:Bag>
        </dc:publisher>
        <dc:subject>
          <rdf:Bag />
        </dc:subject>
      </rdf:Description>
      <cc:Work
         rdf:about="">
        <dc:format>image/svg+xml</dc:format>
        <dc:date>2025-01-24T12:15:38</dc:date>
        <dc:identifier />
        <dc:description />
        <dc:creator>
          <cc:Agent>
            <dc:title>Mason Wachter</dc:title>
          </cc:Agent>
        </dc:creator>
        <dc:publisher>
          <cc:Agent>
            <dc:title>QGIS 3.40.2-Bratislava</dc:title>
          </cc:Agent>
        </dc:publisher>
      </cc:Work>
    </rdf:RDF>
  </metadata>
</svg>
