<?xml version="1.0" encoding="UTF-8" standalone="no"?>
<svg
   height="155.42082"
   width="129.18446"
   viewBox="0 0 403.70143 485.69005"
   version="1.2"
   id="svg39"
   sodipodi:docname="Slope Legend.svg"
   inkscape:export-filename="Slope Legend.svg"
   inkscape:export-xdpi="96"
   inkscape:export-ydpi="96"
   inkscape:version="1.4 (86a8ad7, 2024-10-11)"
   xmlns:inkscape="http://www.inkscape.org/namespaces/inkscape"
   xmlns:sodipodi="http://sodipodi.sourceforge.net/DTD/sodipodi-0.dtd"
   xmlns="http://www.w3.org/2000/svg"
   xmlns:svg="http://www.w3.org/2000/svg"
   xmlns:rdf="http://www.w3.org/1999/02/22-rdf-syntax-ns#"
   xmlns:cc="http://creativecommons.org/ns#"
   xmlns:dc="http://purl.org/dc/elements/1.1/">
  <sodipodi:namedview
     id="namedview39"
     pagecolor="#ffffff"
     bordercolor="#000000"
     borderopacity="0.25"
     inkscape:showpageshadow="2"
     inkscape:pageopacity="0.0"
     inkscape:pagecheckerboard="0"
     inkscape:deskcolor="#d1d1d1"
     inkscape:document-units="px"
     inkscape:zoom="3.7897476"
     inkscape:cx="64.384234"
     inkscape:cy="73.487743"
     inkscape:window-width="2560"
     inkscape:window-height="1009"
     inkscape:window-x="548"
     inkscape:window-y="-8"
     inkscape:window-maximized="1"
     inkscape:current-layer="svg39" />
  <defs
     id="defs1" />
  <g
     stroke-width="1"
     stroke-linejoin="bevel"
     fill-rule="evenodd"
     fill="none"
     stroke="#000000"
     stroke-linecap="square"
     id="g39"
     transform="matrix(1,0,0,0.9942239,1.998522,1.9869783)">
    <g
       stroke-width="1"
       stroke-linejoin="bevel"
       font-weight="400"
       font-style="normal"
       fill="none"
       stroke="#000000"
       stroke-opacity="1"
       font-size="54.1667px"
       stroke-linecap="square"
       font-family="'MS Shell Dlg 2'"
       id="g1" />
    <g
       stroke-width="1"
       stroke-linejoin="bevel"
       font-weight="400"
       font-style="normal"
       fill="none"
       stroke="#000000"
       stroke-opacity="1"
       font-size="54.1667px"
       stroke-linecap="square"
       font-family="'MS Shell Dlg 2'"
       id="g2" />
    <g
       stroke-width="1"
       stroke-linejoin="bevel"
       transform="scale(11.8023)"
       font-weight="400"
       font-style="normal"
       fill="none"
       stroke="#000000"
       stroke-opacity="1"
       font-size="54.1667px"
       stroke-linecap="square"
       font-family="'MS Shell Dlg 2'"
       id="g3" />
    <g
       stroke-width="1"
       stroke-linejoin="bevel"
       transform="scale(0.999261)"
       font-weight="400"
       font-style="normal"
       fill="none"
       stroke="#000000"
       stroke-opacity="1"
       font-size="54.1667px"
       stroke-linecap="square"
       font-family="'MS Shell Dlg 2'"
       id="g4" />
    <g
       transform="scale(0.999261)"
       font-weight="400"
       font-style="normal"
       fill="#ffffff"
       stroke="none"
       fill-opacity="1"
       font-size="54.1667px"
       font-family="'MS Shell Dlg 2'"
       id="g5">
      <path
         vector-effect="none"
         d="M -2,-2 H 402 V 459 H -2 V -2"
         fill-rule="evenodd"
         id="path4" />
    </g>
    <g
       stroke-width="1"
       stroke-linejoin="bevel"
       transform="scale(0.999261)"
       font-weight="400"
       font-style="normal"
       fill="none"
       stroke="#000000"
       stroke-opacity="1"
       font-size="54.1667px"
       stroke-linecap="square"
       font-family="'MS Shell Dlg 2'"
       id="g6" />
    <g
       stroke-width="1"
       stroke-linejoin="bevel"
       transform="scale(11.8023)"
       font-weight="400"
       font-style="normal"
       fill="none"
       stroke="#000000"
       stroke-opacity="1"
       font-size="54.1667px"
       stroke-linecap="square"
       font-family="'MS Shell Dlg 2'"
       id="g7" />
    <g
       stroke-width="1"
       stroke-linejoin="bevel"
       transform="scale(11.8023)"
       font-weight="400"
       font-style="normal"
       fill="none"
       stroke="#000000"
       stroke-opacity="1"
       font-size="54.1667px"
       stroke-linecap="square"
       font-family="'MS Shell Dlg 2'"
       id="g8" />
    <g
       stroke-width="1"
       stroke-linejoin="bevel"
       transform="scale(11.8023)"
       font-weight="400"
       font-style="normal"
       fill="none"
       stroke="#000000"
       stroke-opacity="1"
       font-size="54.1667px"
       stroke-linecap="square"
       font-family="'MS Shell Dlg 2'"
       id="g9" />
    <g
       stroke-width="1"
       stroke-linejoin="bevel"
       transform="scale(11.8023)"
       font-weight="400"
       font-style="normal"
       fill="none"
       stroke="#000000"
       stroke-opacity="1"
       font-size="54.1667px"
       stroke-linecap="square"
       font-family="'MS Shell Dlg 2'"
       id="g10" />
    <g
       stroke-width="1"
       stroke-linejoin="bevel"
       transform="scale(11.8023)"
       font-weight="400"
       font-style="normal"
       fill="none"
       stroke="#000000"
       stroke-opacity="1"
       font-size="54.1667px"
       stroke-linecap="square"
       font-family="'MS Shell Dlg 2'"
       id="g11" />
    <g
       stroke-width="1"
       stroke-linejoin="bevel"
       transform="scale(11.8023)"
       font-weight="400"
       font-style="normal"
       fill="none"
       stroke="#000000"
       stroke-opacity="1"
       font-size="54.1667px"
       stroke-linecap="square"
       font-family="'MS Shell Dlg 2'"
       id="g12" />
    <g
       stroke-width="1"
       stroke-linejoin="bevel"
       transform="scale(11.8023)"
       font-weight="400"
       font-style="normal"
       fill="none"
       stroke="#000000"
       stroke-opacity="1"
       font-size="54.1667px"
       stroke-linecap="square"
       font-family="'MS Shell Dlg 2'"
       id="g13" />
    <g
       transform="scale(11.8023)"
       font-weight="400"
       font-style="normal"
       fill="#ffffff"
       stroke="none"
       fill-opacity="1"
       font-size="54.1667px"
       font-family="'MS Shell Dlg 2'"
       id="g14">
      <path
         vector-effect="none"
         d="M 0,0 H 33.807 V 41.2219 H 0 V 0"
         fill-rule="evenodd"
         id="path13" />
    </g>
    <g
       stroke-width="1"
       stroke-linejoin="bevel"
       transform="scale(11.8023)"
       font-weight="400"
       font-style="normal"
       fill="none"
       stroke="#000000"
       stroke-opacity="1"
       font-size="54.1667px"
       stroke-linecap="square"
       font-family="'MS Shell Dlg 2'"
       id="g15" />
    <g
       stroke-width="1"
       stroke-linejoin="bevel"
       transform="scale(0.999261)"
       font-weight="400"
       font-style="normal"
       fill="none"
       stroke="#000000"
       stroke-opacity="1"
       font-size="54.1667px"
       stroke-linecap="square"
       font-family="'MS Shell Dlg 2'"
       id="g16" />
    <g
       stroke-width="1"
       stroke-linejoin="bevel"
       transform="scale(0.999261)"
       font-weight="400"
       font-style="normal"
       fill="none"
       stroke="#000000"
       stroke-opacity="1"
       font-size="54.1667px"
       stroke-linecap="square"
       font-family="'MS Shell Dlg 2'"
       id="g17" />
    <g
       transform="matrix(0.999261,0,0,0.999261,23.6046,104.848)"
       font-weight="400"
       font-style="normal"
       fill="#000000"
       stroke="none"
       fill-opacity="1"
       font-size="54.1667px"
       font-family="'MS Shell Dlg 2'"
       id="g18">
      <path
         vector-effect="none"
         d="m 2.06641,-10.5791 4.11035,-0.3594 c 0.19466,1.64716 0.64762,2.99856 1.35888,4.05422 0.71127,1.05567 1.8156,1.90918 3.31296,2.56055 1.4974,0.65137 3.182,0.97705 5.0537,0.97705 1.6622,0 3.1296,-0.24707 4.4024,-0.74121 1.2728,-0.49414 2.2199,-1.17171 2.8413,-2.03272 0.6214,-0.861 0.9321,-1.80061 0.9321,-2.81884 0,-1.03321 -0.2995,-1.93535 -0.8984,-2.70655 -0.599,-0.7712 -1.5873,-1.4188 -2.9649,-1.9429 -0.8834,-0.3444 -2.8375,-0.8797 -5.8623,-1.6059 -3.0247,-0.7263 -5.14352,-1.4113 -6.35641,-2.0552 -1.57226,-0.8236 -2.74397,-1.8455 -3.51513,-3.0659 -0.77116,-1.2204 -1.15674,-2.5868 -1.15674,-4.0991 0,-1.6621 0.47168,-3.2157 1.41504,-4.6607 0.94336,-1.445 2.32096,-2.5418 4.13281,-3.2905 1.81183,-0.7487 3.82583,-1.1231 6.04203,-1.1231 2.4407,0 4.5932,0.3931 6.4575,1.1792 1.8642,0.7862 3.298,1.9429 4.3013,3.4703 1.0032,1.5273 1.5423,3.2568 1.6171,5.1884 l -4.1777,0.3145 c -0.2246,-2.0814 -0.9845,-3.6537 -2.2798,-4.7168 -1.2952,-1.0632 -3.2082,-1.5947 -5.7387,-1.5947 -2.6355,0 -4.5559,0.4829 -5.76128,1.4487 -1.2054,0.9658 -1.80811,2.13 -1.80811,3.4927 0,1.1829 0.42676,2.1562 1.28028,2.9199 0.83854,0.7637 3.02851,1.5461 6.56981,2.3472 3.5414,0.8011 5.9709,1.5011 7.2886,2.1001 1.9167,0.8834 3.3317,2.0027 4.2451,3.3579 0.9134,1.3551 1.3701,2.9161 1.3701,4.68307 0,1.75196 -0.5016,3.40283 -1.5049,4.95264 -1.0032,1.5498 -2.4445,2.75521 -4.3237,3.61621 -1.8792,0.861002 -3.9943,1.291503 -6.3452,1.291503 -2.9798,0 -5.4767,-0.434244 -7.49073,-1.302734 C 6.59977,-1.6097 5.02002,-2.91618 3.87451,-4.66064 2.729,-6.40511 2.1263,-8.37793 2.06641,-10.5791 M 33.6143,0 v -32.9277 h 4.0429 V 0 h -4.0429 m 8.8037,-11.9268 c 0,-4.4173 1.2278,-7.6891 3.6836,-9.8154 2.0514,-1.7669 4.552,-2.6504 7.5019,-2.6504 3.2793,0 5.9596,1.0744 8.041,3.2232 2.0814,2.1487 3.1221,5.1173 3.1221,8.9057 0,3.06969 -0.4604,5.48424 -1.3813,7.24368 -0.9209,1.75944 -2.2611,3.12581 -4.0206,4.099122 -1.7594,0.9733068 -3.6798,1.459961 -5.7612,1.459961 -3.3392,0 -6.0382,-1.070639 -8.0972,-3.211913 -2.0589,-2.14128 -3.0883,-5.22591 -3.0883,-9.25395 m 4.1552,0 c 0,3.05473 0.6664,5.342 1.9991,6.86186 1.3326,1.51986 3.0097,2.27978 5.0312,2.27978 2.0065,0 3.6761,-0.76367 5.0088,-2.29101 1.3327,-1.52735 1.999,-3.8558 1.999,-6.98533 0,-2.9499 -0.6701,-5.1848 -2.0102,-6.7046 -1.3402,-1.5199 -3.006,-2.2798 -4.9976,-2.2798 -2.0215,0 -3.6986,0.7562 -5.0312,2.2686 -1.3327,1.5123 -1.9991,3.7959 -1.9991,6.8505 M 69.501,9.1416 v -32.9951 h 3.6836 v 3.0996 c 0.8685,-1.2129 1.8493,-2.1226 2.9424,-2.729 1.093,-0.6065 2.4182,-0.9097 3.9755,-0.9097 2.0365,0 3.8334,0.5241 5.3907,1.5723 1.5573,1.0482 2.7327,2.5268 3.5263,4.436 0.7936,1.9092 1.1905,4.0018 1.1905,6.2779 0,2.44071 -0.438,4.63814 -1.314,6.59224 -0.876,1.9541 -2.1488,3.4515 -3.8184,4.49219 -1.6696,1.0406874 -3.4253,1.561033 -5.2671,1.561033 -1.3476,0 -2.5568,-0.284506 -3.6274,-0.853516 C 75.1125,-0.883464 74.2327,-1.60221 73.5439,-2.4707 V 9.1416 H 69.501 m 3.6611,-20.9336 c 0,3.06967 0.6214,5.33822 1.8643,6.80567 1.2428,1.46745 2.7477,2.20117 4.5146,2.20117 1.7969,0 3.3355,-0.75992 4.6157,-2.27978 1.2803,-1.51986 1.9204,-3.87451 1.9204,-7.06396 0,-3.0397 -0.6251,-5.3158 -1.8754,-6.8281 -1.2504,-1.5124 -2.744,-2.2686 -4.481,-2.2686 -1.722,0 -3.2456,0.8049 -4.5708,2.4146 -1.3252,1.6097 -1.9878,3.9493 -1.9878,7.019 m 38.2459,4.11036 4.178,0.5166 c -0.659,2.44076 -1.879,4.33496 -3.661,5.68262 -1.782,1.347654 -4.058,2.021483 -6.828,2.021483 -3.489,0 -6.2557,-1.074382 -8.2996,-3.223143 -2.044,-2.14876 -3.066,-5.16227 -3.066,-9.04052 0,-4.013 1.0332,-7.1276 3.0997,-9.3438 2.0664,-2.2161 4.7469,-3.3242 8.0409,-3.3242 3.19,0 5.795,1.0856 7.816,3.2569 2.022,2.1712 3.033,5.2259 3.033,9.164 0,0.2396 -0.008,0.599 -0.023,1.0781 H 97.9092 c 0.1497,2.62049 0.8909,4.627 2.2238,6.01958 1.332,1.39257 2.995,2.08886 4.986,2.08886 1.483,0 2.748,-0.38932 3.796,-1.16797 1.048,-0.77864 1.879,-2.02148 2.493,-3.72851 M 98.1338,-14.2178 h 13.3192 c -0.18,-2.0065 -0.689,-3.5114 -1.527,-4.5146 -1.288,-1.5573 -2.958,-2.336 -5.009,-2.336 -1.857,0 -3.418,0.6215 -4.683,1.8643 -1.2654,1.2428 -1.9654,2.9049 -2.1002,4.9863 M 141.149,9.68066 c -2.231,-2.8151 -4.117,-6.10937 -5.66,-9.882808 -1.542,-3.773442 -2.313,-7.681642 -2.313,-11.724652 0,-3.5638 0.576,-6.9778 1.729,-10.2421 1.348,-3.7885 3.429,-7.5619 6.244,-11.3204 h 2.898 c -1.812,3.1146 -3.01,5.3383 -3.594,6.6709 -0.913,2.0664 -1.632,4.2227 -2.156,6.4688 -0.644,2.8001 -0.966,5.6152 -0.966,8.4453 0,7.20248 2.239,14.39746 6.716,21.58496 h -2.898 M 164.211,0 v -3.00977 c -1.512,2.36589 -3.736,3.548833 -6.671,3.548833 -1.902,0 -3.65,-0.5240891 -5.245,-1.572263 -1.594,-1.04818 -2.83,-2.51188 -3.706,-4.39112 -0.876,-1.87923 -1.314,-4.03922 -1.314,-6.47998 0,-2.3809 0.397,-4.5408 1.191,-6.48 0.793,-1.9391 1.984,-3.4253 3.571,-4.4585 1.587,-1.0332 3.362,-1.5498 5.323,-1.5498 1.438,0 2.718,0.3032 3.841,0.9097 1.123,0.6064 2.037,1.3963 2.74,2.3696 v -11.8144 h 4.021 V 0 h -3.751 m -12.78,-11.9043 c 0,3.05469 0.644,5.33822 1.931,6.85059 1.288,1.51237 2.808,2.26855 4.56,2.26855 1.767,0 3.268,-0.72249 4.503,-2.16748 1.236,-1.44498 1.853,-3.6499 1.853,-6.61476 0,-3.2643 -0.629,-5.6601 -1.886,-7.1875 -1.258,-1.5273 -2.808,-2.291 -4.65,-2.291 -1.797,0 -3.298,0.7337 -4.503,2.2012 -1.206,1.4674 -1.808,3.7809 -1.808,6.9404 m 39.212,4.22266 4.177,0.5166 c -0.659,2.44076 -1.879,4.33496 -3.661,5.68262 -1.782,1.347654 -4.058,2.021483 -6.828,2.021483 -3.489,0 -6.255,-1.074382 -8.299,-3.223143 -2.044,-2.14876 -3.066,-5.16227 -3.066,-9.04052 0,-4.013 1.033,-7.1276 3.099,-9.3438 2.067,-2.2161 4.747,-3.3242 8.041,-3.3242 3.19,0 5.795,1.0856 7.817,3.2569 2.021,2.1712 3.032,5.2259 3.032,9.164 0,0.2396 -0.007,0.599 -0.022,1.0781 h -17.789 c 0.149,2.62049 0.891,4.627 2.223,6.01958 1.333,1.39257 2.995,2.08886 4.987,2.08886 1.482,0 2.747,-0.38932 3.795,-1.16797 1.049,-0.77864 1.88,-2.02148 2.494,-3.72851 m -13.275,-6.53616 h 13.32 c -0.18,-2.0065 -0.689,-3.5114 -1.528,-4.5146 -1.288,-1.5573 -2.957,-2.336 -5.009,-2.336 -1.856,0 -3.417,0.6215 -4.683,1.8643 -1.265,1.2428 -1.965,2.9049 -2.1,4.9863 m 21.782,16.19436 3.931,0.58399 c 0.165,1.21289 0.621,2.09635 1.37,2.65039 1.003,0.74869 2.374,1.12304 4.111,1.12304 1.871,0 3.316,-0.37435 4.334,-1.12304 1.019,-0.7487 1.708,-1.79688 2.067,-3.14453 0.21,-0.82357 0.307,-2.553064 0.292,-5.18848 C 213.488,-1.04069 211.287,0 208.651,0 c -3.279,0 -5.817,-1.18294 -7.614,-3.54883 -1.797,-2.36588 -2.695,-5.20345 -2.695,-8.51267 0,-2.2761 0.412,-4.3762 1.235,-6.3003 0.824,-1.9242 2.018,-3.4103 3.583,-4.4585 1.564,-1.0482 3.403,-1.5723 5.514,-1.5723 2.815,0 5.136,1.138 6.963,3.4141 v -2.875 h 3.728 v 20.61912 c 0,3.713547 -0.378,6.34522 -1.134,7.89502 -0.756,1.54981 -1.954,2.77393 -3.594,3.67237 -1.639,0.89844 -3.657,1.34765 -6.053,1.34765 -2.845,0 -5.144,-0.64013 -6.896,-1.92041 -1.751,-1.28027 -2.598,-3.20817 -2.538,-5.78369 m 3.347,-14.33006 c 0,3.12954 0.621,5.41307 1.864,6.85057 1.243,1.4375 2.8,2.15625 4.672,2.15625 1.857,0 3.414,-0.71501 4.672,-2.14502 1.258,-1.43001 1.887,-3.67236 1.887,-6.7271 0,-2.9199 -0.648,-5.121 -1.943,-6.6035 -1.295,-1.4824 -2.856,-2.2236 -4.683,-2.2236 -1.797,0 -3.324,0.73 -4.582,2.1899 -1.258,1.46 -1.887,3.6275 -1.887,6.5025 M 228.12,9.68066 h -2.897 c 4.477,-7.1875 6.715,-14.38248 6.715,-21.58496 0,-2.8151 -0.321,-5.6077 -0.965,-8.3779 -0.509,-2.2461 -1.221,-4.4024 -2.134,-6.4688 -0.584,-1.3476 -1.79,-3.5937 -3.616,-6.7383 h 2.897 c 2.815,3.7585 4.897,7.5319 6.244,11.3204 1.153,3.2643 1.73,6.6783 1.73,10.2421 0,4.04301 -0.775,7.95121 -2.325,11.724652 -1.55,3.773438 -3.433,7.067708 -5.649,9.882808"
         fill-rule="nonzero"
         id="path17" />
    </g>
    <g
       stroke-width="1"
       stroke-linejoin="bevel"
       transform="scale(0.999261)"
       font-weight="400"
       font-style="normal"
       fill="none"
       stroke="#000000"
       stroke-opacity="1"
       font-size="54.1667px"
       stroke-linecap="square"
       font-family="'MS Shell Dlg 2'"
       id="g19" />
    <g
       stroke-width="1"
       stroke-linejoin="miter"
       transform="scale(11.8023)"
       font-weight="400"
       font-style="normal"
       fill="#7b00d7"
       stroke="#000000"
       fill-opacity="1"
       stroke-opacity="1"
       font-size="54.1667px"
       stroke-linecap="square"
       stroke-miterlimit="2"
       font-family="'MS Shell Dlg 2'"
       id="g20">
      <rect
         vector-effect="non-scaling-stroke"
         height="5"
         width="8"
         x="2"
         y="13.5256"
         id="rect19" />
    </g>
    <g
       stroke-width="1"
       stroke-linejoin="miter"
       transform="scale(0.999261)"
       font-weight="400"
       font-style="normal"
       fill="#7b00d7"
       stroke="#000000"
       fill-opacity="1"
       stroke-opacity="1"
       font-size="54.1667px"
       stroke-linecap="square"
       stroke-miterlimit="2"
       font-family="'MS Shell Dlg 2'"
       id="g21" />
    <g
       transform="matrix(0.999261,0,0,0.999261,141.627,205.785)"
       font-weight="400"
       font-style="normal"
       fill="#000000"
       stroke="none"
       fill-opacity="1"
       font-size="54.1667px"
       font-family="'MS Shell Dlg 2'"
       id="g22">
      <path
         vector-effect="none"
         d="m 2.51563,-14.3975 v -3.7734 l 21.80957,-9.209 v 4.0205 l -17.29493,7.0977 17.29493,7.16502 v 4.02051 L 2.51563,-14.3975 M 51.1621,-19.3613 H 29.4199 v -3.7735 h 21.7422 v 3.7735 m 0,9.99509 H 29.4199 v -3.77339 h 21.7422 v 3.77339 M 83.6221,0 h -4.043 v -25.7627 c -0.9733,0.9284 -2.2498,1.8568 -3.8296,2.7852 -1.5797,0.9283 -2.9985,1.6246 -4.2563,2.0888 v -3.9082 c 2.261,-1.0631 4.2376,-2.3509 5.9297,-3.8633 1.692,-1.5123 2.8899,-2.9798 3.5937,-4.4023 h 2.6055 V 0 m 10.3496,-16.2393 c 0,-3.8932 0.4005,-7.0265 1.2016,-9.3999 0.8011,-2.3733 1.9916,-4.2039 3.5713,-5.4917 1.5794,-1.2877 3.5674,-1.9316 5.9634,-1.9316 1.767,0 3.317,0.3556 4.649,1.0669 1.333,0.7113 2.434,1.737 3.302,3.0771 0.869,1.3402 1.55,2.9724 2.044,4.8965 0.494,1.9242 0.741,4.5184 0.741,7.7827 0,3.8633 -0.396,6.98165 -1.19,9.35502 -0.794,2.37337 -1.98,4.20769 -3.56,5.50293 -1.58,1.2952497 -3.575,1.942873 -5.986,1.942873 -3.174,0 -5.6676,-1.13802 -7.4795,-3.414063 -2.1712,-2.74023 -3.2568,-7.20246 -3.2568,-13.38676 m 4.1553,0 c -10e-5,5.4056 0.6326,9.00313 1.898,10.79252 1.265,1.78939 2.826,2.68408 4.683,2.68408 1.857,0 3.418,-0.89843 4.683,-2.69531 1.265,-1.79687 1.898,-5.39059 1.898,-10.78129 0,-5.4205 -0.633,-9.0218 -1.898,-10.8037 -1.265,-1.7819 -2.841,-2.6728 -4.728,-2.6728 -1.857,0 -3.339,0.7861 -4.447,2.3584 -1.3928,2.0065 -2.0891,5.7125 -2.089,11.1181"
         fill-rule="nonzero"
         id="path21" />
    </g>
    <g
       stroke-width="1"
       stroke-linejoin="miter"
       transform="scale(0.999261)"
       font-weight="400"
       font-style="normal"
       fill="#7b00d7"
       stroke="#000000"
       fill-opacity="1"
       stroke-opacity="1"
       font-size="54.1667px"
       stroke-linecap="square"
       stroke-miterlimit="2"
       font-family="'MS Shell Dlg 2'"
       id="g23" />
    <g
       stroke-width="1"
       stroke-linejoin="miter"
       transform="scale(11.8023)"
       font-weight="400"
       font-style="normal"
       fill="#34dd00"
       stroke="#000000"
       fill-opacity="1"
       stroke-opacity="1"
       font-size="54.1667px"
       stroke-linecap="square"
       stroke-miterlimit="2"
       font-family="'MS Shell Dlg 2'"
       id="g24">
      <rect
         vector-effect="non-scaling-stroke"
         height="5"
         width="8"
         x="2"
         y="23.0256"
         id="rect23" />
    </g>
    <g
       stroke-width="1"
       stroke-linejoin="miter"
       transform="scale(0.999261)"
       font-weight="400"
       font-style="normal"
       fill="#34dd00"
       stroke="#000000"
       fill-opacity="1"
       stroke-opacity="1"
       font-size="54.1667px"
       stroke-linecap="square"
       stroke-miterlimit="2"
       font-family="'MS Shell Dlg 2'"
       id="g25" />
    <g
       transform="matrix(0.999261,0,0,0.999261,141.627,317.702)"
       font-weight="400"
       font-style="normal"
       fill="#000000"
       stroke="none"
       fill-opacity="1"
       font-size="54.1667px"
       font-family="'MS Shell Dlg 2'"
       id="g26">
      <path
         vector-effect="none"
         d="m 17.1377,0 h -4.043 v -25.7627 c -0.9733,0.9284 -2.2498,1.8568 -3.82956,2.7852 -1.57976,0.9283 -2.99854,1.6246 -4.25635,2.0888 v -3.9082 c 2.26107,-1.0631 4.23763,-2.3509 5.92971,-3.8633 1.692,-1.5123 2.8899,-2.9798 3.5937,-4.4023 h 2.6055 V 0 m 10.3496,-16.2393 c 0,-3.8932 0.4006,-7.0265 1.2017,-9.3999 0.8011,-2.3733 1.9915,-4.2039 3.5713,-5.4917 1.5797,-1.2877 3.5675,-1.9316 5.9633,-1.9316 1.767,0 3.3168,0.3556 4.6494,1.0669 1.3327,0.7113 2.4333,1.737 3.3018,3.0771 0.8685,1.3402 1.5498,2.9724 2.044,4.8965 0.4941,1.9242 0.7412,4.5184 0.7412,7.7827 0,3.8633 -0.3969,6.98165 -1.1905,9.35502 -0.7936,2.37337 -1.9803,4.20769 -3.56,5.50293 -1.5798,1.2952497 -3.5751,1.942873 -5.9859,1.942873 -3.1744,0 -5.6676,-1.13802 -7.4795,-3.414063 -2.1712,-2.74023 -3.2568,-7.20246 -3.2568,-13.38676 m 4.1553,0 c 0,5.4056 0.6326,9.00313 1.8979,10.79252 1.2653,1.78939 2.8264,2.68408 4.6831,2.68408 1.8568,0 3.4178,-0.89843 4.6831,-2.69531 1.2653,-1.79687 1.898,-5.39059 1.898,-10.78129 0,-5.4205 -0.6327,-9.0218 -1.898,-10.8037 -1.2653,-1.7819 -2.8413,-2.6728 -4.728,-2.6728 -1.8568,0 -3.3392,0.7861 -4.4473,2.3584 -1.3925,2.0065 -2.0888,5.7125 -2.0888,11.1181 m 33.7392,6.35649 v -4.06539 h 12.4209 v 4.06539 H 65.3818 m 49.7752,5.99707 V 0 H 93.3926 c -0.03,-0.973307 0.1273,-1.90918 0.4717,-2.80762 0.554,-1.48242 1.4412,-2.94238 2.6616,-4.37988 1.2204,-1.4375 2.9835,-3.0996 5.2891,-4.9863 3.579,-2.9349 5.998,-5.2596 7.255,-6.9741 1.258,-1.7146 1.887,-3.3355 1.887,-4.8628 0,-1.6023 -0.573,-2.9537 -1.718,-4.0542 -1.146,-1.1006 -2.639,-1.6509 -4.481,-1.6509 -1.947,0 -3.504,0.584 -4.672,1.7519 -1.168,1.168 -1.7595,2.7852 -1.7745,4.8516 l -4.1552,-0.4268 c 0.2845,-3.0996 1.3551,-5.4617 3.2119,-7.0864 1.8567,-1.6247 4.3498,-2.437 7.4798,-2.437 3.159,0 5.66,0.876 7.502,2.6279 1.841,1.752 2.762,3.9232 2.762,6.5137 0,1.3177 -0.269,2.613 -0.808,3.8857 -0.539,1.2728 -1.434,2.613 -2.684,4.0206 -1.251,1.4075 -3.328,3.3391 -6.233,5.7949 -2.426,2.03643 -3.983,3.41778 -4.672,4.14402 -0.689,0.72623 -1.258,1.45621 -1.7072,2.18994 h 16.1492 m 4.33,-4.73926 4.245,-0.35938 c 0.315,2.06641 1.045,3.61996 2.19,4.66065 1.146,1.04069 2.527,1.56103 4.144,1.56103 1.947,0 3.594,-0.73372 4.942,-2.20117 1.347,-1.46744 2.021,-3.41406 2.021,-5.83983 0,-2.306 -0.647,-4.1253 -1.943,-5.458 -1.295,-1.3327 -2.991,-1.999 -5.087,-1.999 -1.303,0 -2.478,0.2957 -3.526,0.8872 -1.049,0.5914 -1.872,1.3589 -2.471,2.3022 l -3.796,-0.4941 3.19,-16.9131 h 16.374 v 3.8633 h -13.14 l -1.775,8.8496 c 1.977,-1.3776 4.051,-2.0664 6.222,-2.0664 2.875,0 5.301,0.9957 7.277,2.9873 1.977,1.9915 2.965,4.5521 2.965,7.6816 0,2.97983 -0.868,5.55535 -2.605,7.72658 -2.111,2.665361 -4.994,3.998043 -8.648,3.998043 -2.994,0 -5.439,-0.838541 -7.333,-2.515623 -1.894,-1.67708 -2.976,-3.90072 -3.246,-6.6709"
         fill-rule="nonzero"
         id="path25" />
    </g>
    <g
       stroke-width="1"
       stroke-linejoin="miter"
       transform="scale(0.999261)"
       font-weight="400"
       font-style="normal"
       fill="#34dd00"
       stroke="#000000"
       fill-opacity="1"
       stroke-opacity="1"
       font-size="54.1667px"
       stroke-linecap="square"
       stroke-miterlimit="2"
       font-family="'MS Shell Dlg 2'"
       id="g27" />
    <g
       stroke-width="1"
       stroke-linejoin="miter"
       transform="scale(11.8023)"
       font-weight="400"
       font-style="normal"
       fill="#ba0000"
       stroke="#000000"
       fill-opacity="1"
       stroke-opacity="1"
       font-size="54.1667px"
       stroke-linecap="square"
       stroke-miterlimit="2"
       font-family="'MS Shell Dlg 2'"
       id="g28">
      <rect
         vector-effect="non-scaling-stroke"
         height="5"
         width="8"
         x="2"
         y="32.5256"
         id="rect27" />
    </g>
    <g
       stroke-width="1"
       stroke-linejoin="miter"
       transform="scale(0.999261)"
       font-weight="400"
       font-style="normal"
       fill="#ba0000"
       stroke="#000000"
       fill-opacity="1"
       stroke-opacity="1"
       font-size="54.1667px"
       stroke-linecap="square"
       stroke-miterlimit="2"
       font-family="'MS Shell Dlg 2'"
       id="g29" />
    <g
       transform="matrix(0.999261,0,0,0.999261,141.627,429.62)"
       font-weight="400"
       font-style="normal"
       fill="#000000"
       stroke="none"
       fill-opacity="1"
       font-size="54.1667px"
       font-family="'MS Shell Dlg 2'"
       id="g30">
      <path
         vector-effect="none"
         d="M 24.3252,-14.3975 2.51563,-5.07617 V -9.09668 L 19.7881,-16.2617 2.51563,-23.3594 v -4.0205 l 21.80957,9.209 v 3.7734 m 38.457,10.51176 V 0 H 41.0176 c -0.03,-0.973307 0.1273,-1.90918 0.4717,-2.80762 0.554,-1.48242 1.4412,-2.94238 2.6616,-4.37988 1.2204,-1.4375 2.9835,-3.0996 5.2895,-4.9863 3.5788,-2.9349 5.9971,-5.2596 7.2549,-6.9741 1.2578,-1.7146 1.8867,-3.3355 1.8867,-4.8628 0,-1.6023 -0.5727,-2.9537 -1.7182,-4.0542 -1.1455,-1.1006 -2.6392,-1.6509 -4.481,-1.6509 -1.9466,0 -3.5039,0.584 -4.6719,1.7519 -1.1679,1.168 -1.7594,2.7852 -1.7744,4.8516 l -4.1552,-0.4268 c 0.2845,-3.0996 1.3551,-5.4617 3.2119,-7.0864 1.8567,-1.6247 4.3499,-2.437 7.4795,-2.437 3.1595,0 5.6601,0.876 7.5019,2.6279 1.8418,1.752 2.7627,3.9232 2.7627,6.5137 0,1.3177 -0.2695,2.613 -0.8086,3.8857 -0.5391,1.2728 -1.4337,2.613 -2.6841,4.0206 -1.2503,1.4075 -3.3279,3.3391 -6.2329,5.7949 -2.4258,2.03643 -3.9831,3.41778 -4.6719,4.14402 -0.6888,0.72623 -1.2578,1.45621 -1.707,2.18994 h 16.1494 m 4.3301,-4.73926 4.2451,-0.35938 c 0.3145,2.06641 1.0445,3.61996 2.19,4.66065 1.1455,1.04069 2.5268,1.56103 4.144,1.56103 1.9466,0 3.5938,-0.73372 4.9414,-2.20117 1.3477,-1.46744 2.0215,-3.41406 2.0215,-5.83983 0,-2.306 -0.6476,-4.1253 -1.9429,-5.458 -1.2952,-1.3327 -2.991,-1.999 -5.0874,-1.999 -1.3027,0 -2.4782,0.2957 -3.5263,0.8872 -1.0482,0.5914 -1.8718,1.3589 -2.4707,2.3022 l -3.7959,-0.4941 3.1894,-16.9131 h 16.374 v 3.8633 H 74.2549 l -1.7744,8.8496 c 1.9765,-1.3776 4.0504,-2.0664 6.2216,-2.0664 2.875,0 5.3008,0.9957 7.2774,2.9873 1.9766,1.9915 2.9648,4.5521 2.9648,7.6816 0,2.97983 -0.8685,5.55535 -2.6054,7.72658 -2.1114,2.665361 -4.9939,3.998043 -8.6475,3.998043 -2.9948,0 -5.4393,-0.838541 -7.3335,-2.515623 -1.8942,-1.67708 -2.9761,-3.90072 -3.2456,-6.6709"
         fill-rule="nonzero"
         id="path29" />
    </g>
    <g
       stroke-width="1"
       stroke-linejoin="miter"
       transform="scale(0.999261)"
       font-weight="400"
       font-style="normal"
       fill="#ba0000"
       stroke="#000000"
       fill-opacity="1"
       stroke-opacity="1"
       font-size="54.1667px"
       stroke-linecap="square"
       stroke-miterlimit="2"
       font-family="'MS Shell Dlg 2'"
       id="g31" />
    <g
       stroke-width="1"
       stroke-linejoin="bevel"
       transform="scale(0.999261)"
       font-weight="400"
       font-style="normal"
       fill="none"
       stroke="#000000"
       stroke-opacity="1"
       font-size="54.1667px"
       stroke-linecap="square"
       font-family="'MS Shell Dlg 2'"
       id="g32" />
    <g
       stroke-width="1"
       stroke-linejoin="bevel"
       transform="scale(11.8023)"
       font-weight="400"
       font-style="normal"
       fill="none"
       stroke="#000000"
       stroke-opacity="1"
       font-size="54.1667px"
       stroke-linecap="square"
       font-family="'MS Shell Dlg 2'"
       id="g33" />
    <g
       stroke-width="1"
       stroke-linejoin="bevel"
       transform="scale(11.8023)"
       font-weight="400"
       font-style="normal"
       fill="none"
       stroke="#000000"
       stroke-opacity="1"
       font-size="54.1667px"
       stroke-linecap="square"
       font-family="'MS Shell Dlg 2'"
       id="g34" />
    <g
       stroke-width="1"
       stroke-linejoin="bevel"
       transform="scale(11.8023)"
       font-weight="400"
       font-style="normal"
       fill="none"
       stroke="#000000"
       stroke-opacity="1"
       font-size="54.1667px"
       stroke-linecap="square"
       font-family="'MS Shell Dlg 2'"
       id="g35" />
    <g
       stroke-width="1"
       stroke-linejoin="bevel"
       transform="scale(11.8023)"
       font-weight="400"
       font-style="normal"
       fill="none"
       stroke="#000000"
       stroke-opacity="1"
       font-size="54.1667px"
       stroke-linecap="square"
       font-family="'MS Shell Dlg 2'"
       id="g36" />
    <g
       stroke-width="1"
       stroke-linejoin="bevel"
       transform="scale(11.8023)"
       font-weight="400"
       font-style="normal"
       fill="none"
       stroke="#000000"
       stroke-opacity="1"
       font-size="54.1667px"
       stroke-linecap="square"
       font-family="'MS Shell Dlg 2'"
       id="g37" />
    <g
       stroke-width="1"
       stroke-linejoin="bevel"
       font-weight="400"
       font-style="normal"
       fill="none"
       stroke="#000000"
       stroke-opacity="1"
       font-size="54.1667px"
       stroke-linecap="square"
       font-family="'MS Shell Dlg 2'"
       id="g38" />
  </g>
  <metadata
     id="metadata39">
    <rdf:RDF>
      <rdf:Description
         dc:description=""
         dc:title=""
         dc:date="2025-01-24T12:15:38"
         dc:format="image/svg+xml"
         dc:identifier="">
        <dc:creator>
          <rdf:Bag>
            <rdf:li>Mason Wachter</rdf:li>
          </rdf:Bag>
        </dc:creator>
        <dc:publisher>
          <rdf:Bag>
            <rdf:li>QGIS 3.40.2-Bratislava</rdf:li>
          </rdf:Bag>
        </dc:publisher>
        <dc:subject>
          <rdf:Bag />
        </dc:subject>
      </rdf:Description>
      <cc:Work
         rdf:about="">
        <dc:format>image/svg+xml</dc:format>
        <dc:date>2025-01-24T12:15:38</dc:date>
        <dc:identifier />
        <dc:description />
        <dc:creator>
          <cc:Agent>
            <dc:title>Mason Wachter</dc:title>
          </cc:Agent>
        </dc:creator>
        <dc:publisher>
          <cc:Agent>
            <dc:title>QGIS 3.40.2-Bratislava</dc:title>
          </cc:Agent>
        </dc:publisher>
      </cc:Work>
    </rdf:RDF>
  </metadata>
</svg>
